Shantell SemiOrganic Wght-Style_4.ufo
<glyph name="comma" format="2">
  <advance width="295.0"/>
  <unicode hex="002C"/>
  <outline>
    <contour>
      <point x="113.0" y="-127.0" type="curve" smooth="yes"/>
      <point x="135.0" y="-127.0"/>
      <point x="155.0" y="-115.0"/>
      <point x="165.0" y="-97.0" type="curve" smooth="yes"/>
      <point x="198.0" y="-42.0"/>
      <point x="223.0" y="43.0"/>
      <point x="227.0" y="111.0" type="curve" smooth="yes"/>
      <point x="227.0" y="112.0"/>
      <point x="227.0" y="114.0"/>
      <point x="227.0" y="115.0" type="curve" smooth="yes"/>
      <point x="227.0" y="148.0"/>
      <point x="200.0" y="175.0"/>
      <point x="167.0" y="175.0" type="curve" smooth="yes"/>
      <point x="135.0" y="175.0"/>
      <point x="109.0" y="150.0"/>
      <point x="107.0" y="118.0" type="curve" smooth="yes"/>
      <point x="104.0" y="66.0"/>
      <point x="86.0" y="6.0"/>
      <point x="62.0" y="-36.0" type="curve" smooth="yes"/>
      <point x="56.0" y="-45.0"/>
      <point x="53.0" y="-55.0"/>
      <point x="53.0" y="-67.0" type="curve" smooth="yes"/>
      <point x="53.0" y="-100.0"/>
      <point x="80.0" y="-127.0"/>
    </contour>
  </outline>
</glyph>
<glyph name="hyphen" format="2">
  <advance width="507.0"/>
  <unicode hex="002D"/>
  <outline>
    <contour>
      <point x="146.0" y="189.0" type="curve" smooth="yes"/>
      <point x="215.0" y="215.0"/>
      <point x="290.0" y="239.0"/>
      <point x="383.0" y="245.0" type="curve" smooth="yes"/>
      <point x="414.0" y="247.0"/>
      <point x="439.0" y="273.0"/>
      <point x="439.0" y="305.0" type="curve" smooth="yes"/>
      <point x="439.0" y="338.0"/>
      <point x="412.0" y="365.0"/>
      <point x="379.0" y="365.0" type="curve" smooth="yes"/>
      <point x="314.0" y="365.0"/>
      <point x="204.0" y="335.0"/>
      <point x="133.0" y="311.0" type="curve" smooth="yes"/>
      <point x="76.0" y="287.0"/>
      <point x="68.0" y="263.0"/>
      <point x="68.0" y="230.0" type="curve" smooth="yes"/>
      <point x="68.0" y="194.0"/>
      <point x="105.0" y="173.0"/>
    </contour>
  </outline>
</glyph>
<glyph name="period" format="2">
  <advance width="323.0"/>
  <unicode hex="002E"/>
  <outline>
    <contour>
      <point x="178.6" y="-13.6" type="curve" smooth="yes"/>
      <point x="230.67272727272" y="-13.6"/>
      <point x="255.6" y="17.2"/>
      <point x="255.6" y="50.6" type="curve" smooth="yes"/>
      <point x="255.6" y="107.2"/>
      <point x="219.34594594596" y="165.8"/>
      <point x="137.8" y="165.8" type="curve" smooth="yes"/>
      <point x="96.2" y="165.8"/>
      <point x="62.2" y="137.4"/>
      <point x="62.2" y="89.0" type="curve" smooth="yes"/>
      <point x="62.2" y="25.2"/>
      <point x="105.4" y="-13.6"/>
    </contour>
  </outline>
</glyph>
<glyph name="zero" format="2">
  <advance width="700.0"/>
  <unicode hex="0030"/>
  <outline>
    <contour>
      <point x="297.0" y="516.2" type="curve" smooth="yes"/>
      <point x="219.0" y="460.2"/>
      <point x="175.6" y="376.4"/>
      <point x="175.6" y="270.0" type="curve" smooth="yes"/>
      <point x="175.6" y="182.4"/>
      <point x="218.4" y="118.0"/>
      <point x="315.8" y="118.0" type="curve" smooth="yes"/>
      <point x="421.2" y="118.0"/>
      <point x="523.4" y="223.4"/>
      <point x="523.4" y="417.0" type="curve" smooth="yes"/>
      <point x="523.4" y="510.6"/>
      <point x="492.7" y="581.8"/>
      <point x="400.0" y="581.8" type="curve" smooth="yes"/>
      <point x="323.3224043716" y="581.8"/>
      <point x="270.71200824728" y="542.39258350496"/>
      <point x="226.2" y="491.4" type="curve" smooth="yes"/>
      <point x="211.6" y="477.4"/>
      <point x="192.0" y="469.2"/>
      <point x="173.8" y="469.2" type="curve" smooth="yes"/>
      <point x="128.8" y="469.2"/>
      <point x="107.6" y="510.8"/>
      <point x="107.6" y="539.6" type="curve" smooth="yes"/>
      <point x="107.6" y="596.58969072164"/>
      <point x="227.21526717556" y="711.0"/>
      <point x="400.0" y="711.0" type="curve" smooth="yes"/>
      <point x="577.2" y="711.0"/>
      <point x="654.0" y="599.0"/>
      <point x="654.0" y="417.0" type="curve" smooth="yes"/>
      <point x="654.0" y="128.0"/>
      <point x="482.12688821752" y="-11.0"/>
      <point x="317.0" y="-11.0" type="curve" smooth="yes"/>
      <point x="158.63157894736" y="-11.0"/>
      <point x="45.0" y="74.0"/>
      <point x="45.0" y="270.0" type="curve" smooth="yes"/>
      <point x="45.0" y="491.18627968336"/>
      <point x="203.0" y="627.0"/>
      <point x="273.6" y="627.0" type="curve" smooth="yes"/>
      <point x="309.656" y="627.0"/>
      <point x="324.8" y="613.0"/>
      <point x="324.8" y="571.0" type="curve" smooth="yes"/>
      <point x="324.8" y="551.6"/>
      <point x="315.459987704" y="529.49110154756"/>
    </contour>
  </outline>
</glyph>
<glyph name="one" format="2">
  <advance width="700.0"/>
  <unicode hex="0031"/>
  <outline>
    <contour>
      <point x="153.0" y="123.0" type="curve" smooth="yes"/>
      <point x="240.6" y="123.0"/>
      <point x="418.00851063828" y="130.8"/>
      <point x="534.8" y="130.8" type="curve" smooth="yes"/>
      <point x="607.49090909092" y="130.8"/>
      <point x="646.8" y="102.4"/>
      <point x="647.6" y="58.2" type="curve" smooth="yes"/>
      <point x="648.4" y="24.6"/>
      <point x="623.87741935484" y="0.0"/>
      <point x="561.4" y="0.0" type="curve" smooth="yes"/>
      <point x="385.4350515464" y="0.0"/>
      <point x="264.8" y="-9.4"/>
      <point x="190.4" y="-9.4" type="curve" smooth="yes"/>
      <point x="90.80000000000001" y="-9.4"/>
      <point x="63.400000000000006" y="29.0283185841"/>
      <point x="63.400000000000006" y="69.0" type="curve" smooth="yes"/>
      <point x="63.400000000000006" y="101.97142857142"/>
      <point x="89.8" y="123.0"/>
    </contour>
    <contour>
      <point x="127.0" y="611.4" type="curve" smooth="yes"/>
      <point x="204.2" y="616.2"/>
      <point x="278.0" y="643.2"/>
      <point x="339.6" y="688.0" type="curve" smooth="yes"/>
      <point x="358.2" y="702.6"/>
      <point x="377.8" y="712.4"/>
      <point x="402.2" y="712.4" type="curve" smooth="yes"/>
      <point x="455.4" y="712.4"/>
      <point x="492.40429773336" y="665.95951985466"/>
      <point x="479.4" y="612.6" type="curve" smooth="yes"/>
      <point x="450.6" y="488.20000000000005"/>
      <point x="427.4" y="281.0"/>
      <point x="427.4" y="122.19999999999999" type="curve" smooth="yes"/>
      <point x="427.4" y="92.19999999999999"/>
      <point x="409.2" y="68.8"/>
      <point x="378.2" y="68.8" type="curve" smooth="yes"/>
      <point x="328.8" y="68.8"/>
      <point x="296.8" y="108.19999999999999"/>
      <point x="296.8" y="156.6" type="curve" smooth="yes"/>
      <point x="296.8" y="295.2"/>
      <point x="316.6" y="451.6"/>
      <point x="341.2" y="582.6" type="curve"/>
      <point x="368.8" y="560.2" type="line"/>
      <point x="308.3958436695" y="516.2887907972599"/>
      <point x="226.4" y="489.4"/>
      <point x="151.0" y="489.4" type="curve" smooth="yes"/>
      <point x="99.4" y="489.4"/>
      <point x="72.2" y="522.78762886598"/>
      <point x="72.2" y="560.8" type="curve" smooth="yes"/>
      <point x="72.2" y="586.96170212768"/>
      <point x="89.2" y="607.8"/>
    </contour>
  </outline>
</glyph>
<glyph name="two" format="2">
  <advance width="700.0"/>
  <unicode hex="0032"/>
  <outline>
    <contour>
      <point x="118.4" y="617.6" type="curve" smooth="yes"/>
      <point x="200.85908703912" y="676.93511436836"/>
      <point x="289.04081632654" y="713.0"/>
      <point x="378.0" y="713.0" type="curve" smooth="yes"/>
      <point x="532.4" y="713.0"/>
      <point x="592.0" y="628.17647058824"/>
      <point x="592.0" y="507.0" type="curve" smooth="yes"/>
      <point x="592.0" y="397.71356993736"/>
      <point x="530.510111181" y="271.81369840576"/>
      <point x="238.2" y="87.6" type="curve"/>
      <point x="207.6" y="125.0" type="line"/>
      <point x="230.8" y="116.8"/>
      <point x="253.2" y="114.8"/>
      <point x="275.8" y="114.8" type="curve" smooth="yes"/>
      <point x="340.0" y="114.8"/>
      <point x="435.6" y="130.8"/>
      <point x="546.2" y="130.8" type="curve" smooth="yes"/>
      <point x="629.8" y="130.8"/>
      <point x="656.0" y="96.12830188678"/>
      <point x="656.0" y="54.8" type="curve" smooth="yes"/>
      <point x="656.0" y="24.09411764708"/>
      <point x="632.4399999999999" y="0.0"/>
      <point x="587.0" y="0.0" type="curve" smooth="yes"/>
      <point x="371.20901081298" y="0.0"/>
      <point x="255.22202643174" y="-20.0"/>
      <point x="173.4" y="-20.0" type="curve" smooth="yes"/>
      <point x="107.2" y="-20.0"/>
      <point x="75.2" y="17.4"/>
      <point x="75.2" y="75.8" type="curve" smooth="yes"/>
      <point x="75.2" y="107.8"/>
      <point x="87.8" y="125.0"/>
      <point x="104.2" y="135.4" type="curve" smooth="yes"/>
      <point x="367.41021695634" y="302.75537753812"/>
      <point x="461.4" y="407.73301886792"/>
      <point x="461.4" y="507.0" type="curve" smooth="yes"/>
      <point x="461.4" y="553.43741007194"/>
      <point x="435.2" y="582.0"/>
      <point x="378.0" y="582.0" type="curve" smooth="yes"/>
      <point x="253.64385964912" y="582.0"/>
      <point x="189.01666666668" y="494.8"/>
      <point x="145.6" y="494.8" type="curve" smooth="yes"/>
      <point x="110.8" y="494.8"/>
      <point x="83.4" y="525.2"/>
      <point x="83.4" y="560.0" type="curve" smooth="yes"/>
      <point x="83.4" y="584.0"/>
      <point x="92.6" y="598.8"/>
    </contour>
  </outline>
</glyph>
<glyph name="three" format="2">
  <advance width="700.0"/>
  <unicode hex="0033"/>
  <outline>
    <contour>
      <point x="372.0" y="712.0" type="curve" smooth="yes"/>
      <point x="517.6" y="712.0"/>
      <point x="586.8" y="645.75294117648"/>
      <point x="586.8" y="544.0" type="curve" smooth="yes"/>
      <point x="586.8" y="470.9398907104"/>
      <point x="544.06497561364" y="389.87807475185997"/>
      <point x="381.0" y="362.6" type="curve"/>
      <point x="377.8" y="392.8" type="line"/>
      <point x="579.20052492232" y="392.4000052756"/>
      <point x="644.0" y="322.5436896113"/>
      <point x="644.0" y="220.0" type="curve" smooth="yes"/>
      <point x="644.0" y="66.94782608695999"/>
      <point x="490.0" y="-12.0"/>
      <point x="281.0" y="-12.0" type="curve" smooth="yes"/>
      <point x="128.52" y="-12.0"/>
      <point x="75.4" y="42.8"/>
      <point x="75.4" y="105.4" type="curve" smooth="yes"/>
      <point x="75.4" y="139.53793103447998"/>
      <point x="90.16999999998" y="166.6"/>
      <point x="122.8" y="166.6" type="curve" smooth="yes"/>
      <point x="161.0" y="166.6"/>
      <point x="163.41654135336" y="118.6"/>
      <point x="259.6" y="118.6" type="curve" smooth="yes"/>
      <point x="405.8" y="118.6"/>
      <point x="513.4" y="158.60490797548"/>
      <point x="513.4" y="226.6" type="curve" smooth="yes"/>
      <point x="513.4" y="281.88571428572"/>
      <point x="450.40029343404" y="297.9999978424"/>
      <point x="295.8" y="298.4" type="curve" smooth="yes"/>
      <point x="250.8" y="298.4"/>
      <point x="227.0" y="335.2"/>
      <point x="227.0" y="373.0" type="curve" smooth="yes"/>
      <point x="227.0" y="394.6"/>
      <point x="237.8" y="411.0"/>
      <point x="264.2" y="416.6" type="curve" smooth="yes"/>
      <point x="377.37638923152" y="442.09594235312"/>
      <point x="451.4" y="476.8609929078"/>
      <point x="451.4" y="538.0" type="curve" smooth="yes"/>
      <point x="451.4" y="577.94285714284"/>
      <point x="422.4" y="587.0"/>
      <point x="378.6" y="587.0" type="curve" smooth="yes"/>
      <point x="211.6" y="587.0"/>
      <point x="178.65714285716" y="514.2"/>
      <point x="128.0" y="514.2" type="curve" smooth="yes"/>
      <point x="101.6" y="514.2"/>
      <point x="67.6" y="539.6"/>
      <point x="67.6" y="573.6" type="curve" smooth="yes"/>
      <point x="67.6" y="627.0451612903399"/>
      <point x="209.12436597114" y="712.0"/>
    </contour>
  </outline>
</glyph>
<glyph name="four" format="2">
  <advance width="700.0"/>
  <unicode hex="0034"/>
  <outline>
    <contour>
      <point x="347.4" y="157.0" type="curve" smooth="yes"/>
      <point x="347.4" y="299.61298701298"/>
      <point x="393.2" y="435.0"/>
      <point x="393.2" y="552.6" type="curve" smooth="yes"/>
      <point x="393.2" y="582.8"/>
      <point x="389.4" y="604.4"/>
      <point x="378.8" y="630.8" type="curve"/>
      <point x="421.8" y="595.4" type="line"/>
      <point x="309.6" y="524.8"/>
      <point x="217.2" y="395.0"/>
      <point x="163.2" y="247.0" type="curve"/>
      <point x="121.8" y="304.2" type="line"/>
      <point x="155.6" y="290.4"/>
      <point x="163.2" y="288.2"/>
      <point x="185.8" y="288.2" type="curve" smooth="yes"/>
      <point x="310.6" y="288.2"/>
      <point x="413.4" y="335.0"/>
      <point x="582.2" y="335.0" type="curve" smooth="yes"/>
      <point x="630.4" y="335.0"/>
      <point x="664.8" y="297.4"/>
      <point x="664.8" y="255.0" type="curve" smooth="yes"/>
      <point x="664.8" y="225.8"/>
      <point x="648.4" y="204.0"/>
      <point x="608.2" y="204.0" type="curve" smooth="yes"/>
      <point x="413.0" y="204.0"/>
      <point x="301.0" y="156.2"/>
      <point x="146.4" y="156.2" type="curve" smooth="yes"/>
      <point x="83.0" y="156.2"/>
      <point x="42.2" y="202.0"/>
      <point x="42.2" y="248.0" type="curve" smooth="yes"/>
      <point x="42.2" y="287.3612903226"/>
      <point x="49.22132262902" y="327.9025887877"/>
      <point x="86.6" y="393.8" type="curve" smooth="yes"/>
      <point x="187.2" y="584.4"/>
      <point x="345.0" y="715.0"/>
      <point x="424.2" y="715.0" type="curve" smooth="yes"/>
      <point x="496.0" y="715.0"/>
      <point x="527.4" y="651.0"/>
      <point x="527.4" y="566.6" type="curve" smooth="yes"/>
      <point x="527.4" y="417.4"/>
      <point x="479.2" y="306.28578313252"/>
      <point x="479.2" y="148.0" type="curve" smooth="yes"/>
      <point x="479.2" y="96.0"/>
      <point x="489.2" y="73.4"/>
      <point x="489.2" y="45.0" type="curve" smooth="yes"/>
      <point x="489.2" y="9.8"/>
      <point x="462.8" y="-11.0"/>
      <point x="423.2" y="-11.0" type="curve" smooth="yes"/>
      <point x="368.8" y="-11.0"/>
      <point x="347.4" y="39.0"/>
    </contour>
  </outline>
</glyph>
<glyph name="five" format="2">
  <advance width="700.0"/>
  <unicode hex="0035"/>
  <outline>
    <contour>
      <point x="572.0" y="596.0" type="curve" smooth="yes"/>
      <point x="422.0" y="602.0"/>
      <point x="355.0" y="577.0"/>
      <point x="180.0" y="580.0" type="curve"/>
      <point x="238.0" y="622.0" type="line"/>
      <point x="230.0" y="595.0"/>
      <point x="186.0" y="497.0"/>
      <point x="215.0" y="488.0" type="curve" smooth="yes"/>
      <point x="252.0" y="477.0"/>
      <point x="319.0" y="464.0"/>
      <point x="384.0" y="451.0" type="curve" smooth="yes"/>
      <point x="588.0" y="409.0"/>
      <point x="621.0" y="337.0"/>
      <point x="621.0" y="229.0" type="curve" smooth="yes"/>
      <point x="621.0" y="102.0"/>
      <point x="475.0" y="-12.0"/>
      <point x="252.0" y="-12.0" type="curve" smooth="yes"/>
      <point x="177.0" y="-12.0"/>
      <point x="130.0" y="26.0"/>
      <point x="114.0" y="51.0" type="curve" smooth="yes"/>
      <point x="97.0" y="79.0"/>
      <point x="106.0" y="117.0"/>
      <point x="133.0" y="134.0" type="curve" smooth="yes"/>
      <point x="161.0" y="151.0"/>
      <point x="199.0" y="142.0"/>
      <point x="216.0" y="115.0" type="curve" smooth="yes"/>
      <point x="220.0" y="108.0"/>
      <point x="237.0" y="108.0"/>
      <point x="252.0" y="108.0" type="curve" smooth="yes"/>
      <point x="377.0" y="108.0"/>
      <point x="501.0" y="156.0"/>
      <point x="501.0" y="239.0" type="curve" smooth="yes"/>
      <point x="501.0" y="297.0"/>
      <point x="440.0" y="317.0"/>
      <point x="360.0" y="333.0" type="curve" smooth="yes"/>
      <point x="291.0" y="347.0"/>
      <point x="220.0" y="361.0"/>
      <point x="179.0" y="374.0" type="curve" smooth="yes"/>
      <point x="100.0" y="399.0"/>
      <point x="54.0" y="436.0"/>
      <point x="124.0" y="658.0" type="curve" smooth="yes"/>
      <point x="132.0" y="683.0"/>
      <point x="155.0" y="700.0"/>
      <point x="182.0" y="700.0" type="curve" smooth="yes"/>
      <point x="359.0" y="697.0"/>
      <point x="426.0" y="722.0"/>
      <point x="576.0" y="716.0" type="curve" smooth="yes"/>
      <point x="609.0" y="715.0"/>
      <point x="635.0" y="686.0"/>
      <point x="634.0" y="654.0" type="curve" smooth="yes"/>
      <point x="633.0" y="621.0"/>
      <point x="604.0" y="595.0"/>
    </contour>
  </outline>
</glyph>
<glyph name="six" format="2">
  <advance width="700.0"/>
  <unicode hex="0036"/>
  <outline>
    <contour>
      <point x="450.6" y="582.6" type="curve" smooth="yes"/>
      <point x="293.07878174148" y="469.22011892826004"/>
      <point x="183.8" y="358.12727272728"/>
      <point x="183.8" y="242.0" type="curve" smooth="yes"/>
      <point x="183.8" y="148.52151898736"/>
      <point x="256.22818830904" y="118.0"/>
      <point x="357.0" y="118.0" type="curve" smooth="yes"/>
      <point x="448.50793271216" y="118.0"/>
      <point x="518.8" y="152.26335403728"/>
      <point x="518.8" y="217.0" type="curve" smooth="yes"/>
      <point x="518.8" y="256.99797979796"/>
      <point x="486.24115203544" y="298.8"/>
      <point x="390.8" y="298.8" type="curve" smooth="yes"/>
      <point x="281.62011605416" y="298.8"/>
      <point x="259.98723404258" y="272.6"/>
      <point x="216.2" y="272.6" type="curve" smooth="yes"/>
      <point x="184.2" y="272.6"/>
      <point x="173.8" y="287.8"/>
      <point x="173.8" y="310.6" type="curve" smooth="yes"/>
      <point x="173.8" y="349.97637795278"/>
      <point x="264.95284552844" y="414.2"/>
      <point x="419.4" y="414.2" type="curve" smooth="yes"/>
      <point x="566.47873303168" y="414.2"/>
      <point x="651.0" y="324.2669767442"/>
      <point x="651.0" y="209.0" type="curve" smooth="yes"/>
      <point x="651.0" y="87.38139534884"/>
      <point x="541.89629196394" y="-10.0"/>
      <point x="354.6" y="-10.0" type="curve" smooth="yes"/>
      <point x="143.5174940775" y="-10.0"/>
      <point x="49.0" y="87.4"/>
      <point x="49.0" y="239.0" type="curve" smooth="yes"/>
      <point x="49.0" y="384.66605922552003"/>
      <point x="164.22821231688" y="536.16488638602"/>
      <point x="358.6" y="677.6" type="curve" smooth="yes"/>
      <point x="394.63770578716" y="703.4653528717"/>
      <point x="406.90434782605996" y="710.4"/>
      <point x="426.8" y="710.4" type="curve" smooth="yes"/>
      <point x="462.44680851066" y="710.4"/>
      <point x="489.6" y="676.70303030306"/>
      <point x="489.6" y="641.6" type="curve" smooth="yes"/>
      <point x="489.6" y="619.4"/>
      <point x="484.0" y="605.8"/>
    </contour>
  </outline>
</glyph>
<glyph name="seven" format="2">
  <advance width="700.0"/>
  <unicode hex="0037"/>
  <outline>
    <contour>
      <point x="192.0" y="358.0" type="curve" smooth="yes"/>
      <point x="298.22711864408" y="358.0"/>
      <point x="392.1254237288" y="386.0"/>
      <point x="550.0" y="386.0" type="curve" smooth="yes"/>
      <point x="613.9" y="386.0"/>
      <point x="652.0" y="350.63529411764"/>
      <point x="652.0" y="305.0" type="curve" smooth="yes"/>
      <point x="652.0" y="278.6"/>
      <point x="632.6" y="261.0"/>
      <point x="597.0" y="261.0" type="curve" smooth="yes"/>
      <point x="392.4814404432" y="261.0"/>
      <point x="319.43988603988" y="233.0"/>
      <point x="230.0" y="233.0" type="curve" smooth="yes"/>
      <point x="181.8" y="233.0"/>
      <point x="146.2" y="270.0"/>
      <point x="146.2" y="307.6" type="curve" smooth="yes"/>
      <point x="146.2" y="339.6"/>
      <point x="162.4" y="358.0"/>
    </contour>
    <contour>
      <point x="83.2" y="645.8" type="curve" smooth="yes"/>
      <point x="172.6" y="682.4"/>
      <point x="289.11992393542" y="710.0"/>
      <point x="376.0" y="710.0" type="curve" smooth="yes"/>
      <point x="541.4117647058599" y="710.0"/>
      <point x="604.0" y="641.4"/>
      <point x="604.0" y="541.0" type="curve" smooth="yes"/>
      <point x="604.0" y="389.0"/>
      <point x="416.0" y="235.0"/>
      <point x="416.0" y="61.6" type="curve" smooth="yes"/>
      <point x="416.0" y="7.0"/>
      <point x="401.8" y="-9.0"/>
      <point x="365.0" y="-9.0" type="curve" smooth="yes"/>
      <point x="321.4" y="-9.0"/>
      <point x="285.4" y="16.0"/>
      <point x="285.4" y="69.4" type="curve" smooth="yes"/>
      <point x="285.4" y="242.8"/>
      <point x="471.0" y="442.0"/>
      <point x="471.0" y="528.4" type="curve" smooth="yes"/>
      <point x="471.0" y="567.8"/>
      <point x="451.0" y="584.8"/>
      <point x="383.0" y="584.8" type="curve" smooth="yes"/>
      <point x="231.2" y="584.8"/>
      <point x="166.1856115108" y="528.4"/>
      <point x="121.0" y="528.4" type="curve" smooth="yes"/>
      <point x="88.08636363638" y="528.4"/>
      <point x="54.4" y="565.0"/>
      <point x="54.4" y="600.6" type="curve" smooth="yes"/>
      <point x="54.4" y="619.4"/>
      <point x="64.4" y="638.4"/>
    </contour>
  </outline>
</glyph>
<glyph name="eight" format="2">
  <advance width="700.0"/>
  <unicode hex="0038"/>
  <outline>
    <contour>
      <point x="416.0" y="584.8" type="curve" smooth="yes"/>
      <point x="244.33077932234" y="589.75395218916"/>
      <point x="187.6" y="567.8"/>
      <point x="187.6" y="531.2" type="curve" smooth="yes"/>
      <point x="187.6" y="494.72045454546"/>
      <point x="251.2" y="467.8"/>
      <point x="388.0" y="420.2" type="curve" smooth="yes"/>
      <point x="607.42058304796" y="344.0523289791"/>
      <point x="635.0" y="293.8"/>
      <point x="635.0" y="209.2" type="curve" smooth="yes"/>
      <point x="635.0" y="94.2"/>
      <point x="542.97647058826" y="-12.0"/>
      <point x="301.2" y="-12.0" type="curve" smooth="yes"/>
      <point x="134.18461538462" y="-12.0"/>
      <point x="72.399958606" y="65.397992391"/>
      <point x="73.6" y="153.2" type="curve" smooth="yes"/>
      <point x="75.18039233569999" y="219.39920184886"/>
      <point x="103.1734241308" y="284.91126376488"/>
      <point x="317.2" y="408.8" type="curve" smooth="yes"/>
      <point x="448.48350035252" y="482.95760544606"/>
      <point x="489.9211076557" y="528.49160265416"/>
      <point x="507.0" y="590.6" type="curve" smooth="yes"/>
      <point x="516.6" y="623.8"/>
      <point x="528.31111111112" y="642.4"/>
      <point x="556.2" y="642.4" type="curve" smooth="yes"/>
      <point x="594.14385964912" y="642.4"/>
      <point x="626.2" y="608.2"/>
      <point x="626.2" y="564.6" type="curve" smooth="yes"/>
      <point x="626.2" y="502.0"/>
      <point x="577.0012249643199" y="420.28694363546"/>
      <point x="430.2" y="334.0" type="curve" smooth="yes"/>
      <point x="232.2" y="219.4"/>
      <point x="205.4" y="185.61283422458"/>
      <point x="205.4" y="141.4" type="curve" smooth="yes"/>
      <point x="205.4" y="117.05882352943999"/>
      <point x="208.09491312952" y="86.72649867466"/>
      <point x="227.8" y="49.6" type="curve"/>
      <point x="155.2" y="144.0" type="line"/>
      <point x="205.98848566384" y="120.21835913328"/>
      <point x="249.4830769231" y="116.6"/>
      <point x="300.0" y="116.6" type="curve" smooth="yes"/>
      <point x="409.1612903226" y="116.6"/>
      <point x="498.4" y="143.94193548389998"/>
      <point x="498.4" y="211.8" type="curve" smooth="yes"/>
      <point x="498.4" y="249.4"/>
      <point x="475.8" y="279.0"/>
      <point x="334.6" y="321.0" type="curve" smooth="yes"/>
      <point x="97.6" y="391.4"/>
      <point x="56.0" y="446.4"/>
      <point x="57.0" y="532.0" type="curve" smooth="yes"/>
      <point x="58.9999909304" y="645.19945582496"/>
      <point x="152.06393979682" y="713.65515085396"/>
      <point x="363.0" y="711.0" type="curve" smooth="yes"/>
      <point x="433.4" y="710.2"/>
      <point x="469.8" y="669.6"/>
      <point x="468.6" y="630.6" type="curve" smooth="yes"/>
      <point x="468.0" y="605.0"/>
      <point x="444.0" y="583.8"/>
    </contour>
  </outline>
</glyph>
<glyph name="nine" format="2">
  <advance width="700.0"/>
  <unicode hex="0039"/>
  <outline>
    <contour>
      <point x="475.6" y="550.6" type="curve" smooth="yes"/>
      <point x="504.6" y="550.6"/>
      <point x="517.6" y="578.4"/>
      <point x="517.6" y="605.6" type="curve" smooth="yes"/>
      <point x="517.6" y="670.0"/>
      <point x="463.0220338983" y="710.0"/>
      <point x="369.0" y="710.0" type="curve" smooth="yes"/>
      <point x="163.2" y="710.0"/>
      <point x="56.0" y="574.71755725188"/>
      <point x="56.0" y="448.4" type="curve" smooth="yes"/>
      <point x="56.0" y="329.99428571429996"/>
      <point x="124.59733333332" y="255.2"/>
      <point x="264.4" y="255.2" type="curve" smooth="yes"/>
      <point x="392.27326732676" y="255.2"/>
      <point x="489.33920179854" y="311.93671170654"/>
      <point x="550.8" y="430.8" type="curve"/>
      <point x="478.2" y="400.2" type="line"/>
      <point x="478.2" y="257.47208480567997"/>
      <point x="476.14221985382" y="144.24712697934"/>
      <point x="488.4" y="65.0" type="curve" smooth="yes"/>
      <point x="496.10789852743994" y="21.055811682699996"/>
      <point x="528.6" y="-9.0"/>
      <point x="574.8" y="-9.0" type="curve" smooth="yes"/>
      <point x="607.8" y="-9.0"/>
      <point x="626.0" y="9.2"/>
      <point x="626.0" y="48.599999999999994" type="curve" smooth="yes"/>
      <point x="626.0" y="91.4"/>
      <point x="611.0" y="139.22390438248"/>
      <point x="611.0" y="281.8" type="curve" smooth="yes"/>
      <point x="611.0" y="329.0"/>
      <point x="610.4" y="400.4"/>
      <point x="612.6" y="498.6" type="curve"/>
      <point x="635.77705637824" y="612.87199874168"/>
      <point x="606.4" y="662.4"/>
      <point x="532.6" y="662.4" type="curve" smooth="yes"/>
      <point x="504.8" y="662.4"/>
      <point x="486.0" y="640.8"/>
      <point x="486.0" y="601.6" type="curve" smooth="yes"/>
      <point x="486.0" y="439.28983957218"/>
      <point x="386.0" y="382.0"/>
      <point x="265.0" y="382.0" type="curve" smooth="yes"/>
      <point x="214.0" y="382.0"/>
      <point x="186.6" y="407.73333333334"/>
      <point x="186.6" y="452.0" type="curve" smooth="yes"/>
      <point x="186.6" y="516.78181818184"/>
      <point x="248.0" y="581.4"/>
      <point x="369.0" y="581.4" type="curve" smooth="yes"/>
      <point x="438.6" y="581.4"/>
      <point x="445.6" y="550.6"/>
    </contour>
  </outline>
</glyph>
<glyph name="A" format="2">
  <advance width="723.0"/>
  <unicode hex="0041"/>
  <outline>
    <contour>
      <point x="636.0" y="-10.00000000002" type="curve" smooth="yes"/>
      <point x="657.99999999998" y="-10.00000000002"/>
      <point x="672.99999999998" y="4.0"/>
      <point x="672.99999999998" y="28.0" type="curve" smooth="yes"/>
      <point x="672.99999999998" y="72.99999999998"/>
      <point x="602.99999999998" y="189.99999999998"/>
      <point x="580.99999999998" y="397.0" type="curve" smooth="yes"/>
      <point x="557.99999999998" y="610.99999999998"/>
      <point x="527.0" y="717.99999999998"/>
      <point x="402.99999999998" y="717.99999999998" type="curve" smooth="yes"/>
      <point x="321.00000000002" y="717.99999999998"/>
      <point x="249.00000000001998" y="653.00000000004"/>
      <point x="191.00000000002" y="535.99999999998" type="curve"/>
      <point x="238.99999999998" y="564.0" type="line"/>
      <point x="213.99999999995998" y="582.99999999998"/>
      <point x="187.99999999996" y="595.00000000002"/>
      <point x="159.0" y="595.00000000002" type="curve" smooth="yes"/>
      <point x="133.99999999998" y="595.00000000002"/>
      <point x="121.99999999998" y="580.0"/>
      <point x="121.99999999998" y="557.00000000002" type="curve" smooth="yes"/>
      <point x="121.99999999998" y="408.0"/>
      <point x="64.0" y="304.0"/>
      <point x="64.0" y="111.99999999997999" type="curve" smooth="yes"/>
      <point x="64.0" y="33.0"/>
      <point x="102.4470588235" y="-8.0"/>
      <point x="140.00000000002" y="-8.0" type="curve" smooth="yes"/>
      <point x="167.99999999998" y="-9.00000000002"/>
      <point x="183.00000000002" y="15.99999999998"/>
      <point x="185.0" y="32.99999999998" type="curve" smooth="yes"/>
      <point x="238.0116152329" y="375.0749511254"/>
      <point x="333.21875" y="598.99999999998"/>
      <point x="402.00000000002" y="598.99999999998" type="curve" smooth="yes"/>
      <point x="426.7058823529" y="598.99999999998"/>
      <point x="442.84683988528" y="559.75841046404"/>
      <point x="462.00000000002" y="384.00000000002" type="curve" smooth="yes"/>
      <point x="473.8290329183" y="273.89900129898"/>
      <point x="489.3931298214" y="135.64823172748"/>
      <point x="534.0" y="61.00000000002" type="curve" smooth="yes"/>
      <point x="570.00000000002" y="-1.0"/>
      <point x="599.0" y="-10.00000000002"/>
    </contour>
    <contour>
      <point x="87.00000000002" y="186.99999999998" type="curve" smooth="yes"/>
      <point x="189.0" y="186.99999999998"/>
      <point x="315.00000000002" y="271.00000000002"/>
      <point x="600.00000000002" y="271.00000000002" type="curve" smooth="yes"/>
      <point x="655.0" y="271.00000000002"/>
      <point x="701.99999999998" y="306.00000000002"/>
      <point x="701.99999999998" y="352.99999999998" type="curve" smooth="yes"/>
      <point x="701.99999999998" y="382.99999999998"/>
      <point x="690.99999999998" y="391.00000000002"/>
      <point x="595.99999999998" y="391.00000000002" type="curve" smooth="yes"/>
      <point x="384.99999999998" y="391.00000000002"/>
      <point x="200.0" y="339.99999999998"/>
      <point x="47.00000000002" y="279.99999999998" type="curve" smooth="yes"/>
      <point x="24.0" y="270.99999999998"/>
      <point x="15.0" y="260.0"/>
      <point x="15.0" y="241.99999999998" type="curve" smooth="yes"/>
      <point x="15.0" y="212.00000000002"/>
      <point x="50.99999999998" y="186.99999999998"/>
    </contour>
  </outline>
</glyph>
<glyph name="B" format="2">
  <advance width="553.0"/>
  <unicode hex="0042"/>
  <outline>
    <contour>
      <point x="185.0" y="332.0" type="curve" smooth="yes"/>
      <point x="186.6" y="420.8"/>
      <point x="188.00000000002" y="459.00000000002"/>
      <point x="204.00000000002" y="565.99999999998" type="curve" smooth="yes"/>
      <point x="210.99999999998" y="611.00000000002"/>
      <point x="176.2" y="652.2"/>
      <point x="129.99999999998" y="652.00000000002" type="curve" smooth="yes"/>
      <point x="99.2" y="652.2"/>
      <point x="91.80000000000001" y="637.8"/>
      <point x="89.0" y="618.0" type="curve" smooth="yes"/>
      <point x="71.0" y="483.8"/>
      <point x="65.00000000002001" y="438.0"/>
      <point x="65.00000000002001" y="331.0" type="curve" smooth="yes"/>
      <point x="65.00000000002001" y="151.36607142862002"/>
      <point x="132.99999999998" y="-10.0"/>
      <point x="247.0" y="-10.0" type="curve" smooth="yes"/>
      <point x="363.9482758621" y="-10.0"/>
      <point x="512.8" y="94.0"/>
      <point x="512.8" y="200.8" type="curve" smooth="yes"/>
      <point x="512.8" y="268.23267973856"/>
      <point x="462.8" y="325.4"/>
      <point x="304.2" y="357.8" type="curve"/>
      <point x="307.6" y="331.0" type="line"/>
      <point x="475.2" y="395.0"/>
      <point x="538.99999999998" y="463.99999999998"/>
      <point x="538.99999999998" y="525.0" type="curve" smooth="yes"/>
      <point x="538.99999999998" y="656.0"/>
      <point x="366.00000000002" y="712.0"/>
      <point x="153.00000000002" y="712.0" type="curve" smooth="yes"/>
      <point x="82.00000000002" y="712.0"/>
      <point x="41.0" y="681.0"/>
      <point x="41.0" y="626.00000000002" type="curve" smooth="yes"/>
      <point x="41.0" y="603.00000000002"/>
      <point x="58.000000000019995" y="584.00000000002"/>
      <point x="77.99999999998" y="584.00000000002" type="curve" smooth="yes"/>
      <point x="98.99999999998" y="584.00000000002"/>
      <point x="149.99999999998" y="584.00000000002"/>
      <point x="197.99999999998" y="584.00000000002" type="curve" smooth="yes"/>
      <point x="302.1730834753" y="584.00000000002"/>
      <point x="407.0" y="552.6"/>
      <point x="407.0" y="512.2" type="curve" smooth="yes"/>
      <point x="407.0" y="471.4"/>
      <point x="246.22571584996" y="402.4589367803"/>
      <point x="170.99999999998" y="386.00000000002" type="curve" smooth="yes"/>
      <point x="129.0" y="376.8"/>
      <point x="110.0" y="358.85714285708"/>
      <point x="110.0" y="336.0" type="curve" smooth="yes"/>
      <point x="110.0" y="296.0"/>
      <point x="136.0" y="275.00000000002"/>
      <point x="173.0" y="276.00000000002" type="curve" smooth="yes"/>
      <point x="301.84379507582" y="278.43101500138"/>
      <point x="393.0" y="240.00000000002"/>
      <point x="393.0" y="200.00000000002" type="curve" smooth="yes"/>
      <point x="393.0" y="165.0"/>
      <point x="308.8" y="109.8"/>
      <point x="253.4" y="109.8" type="curve" smooth="yes"/>
      <point x="221.2" y="109.8"/>
      <point x="182.2" y="209.8"/>
    </contour>
  </outline>
</glyph>
<glyph name="C" format="2">
  <advance width="616.0"/>
  <unicode hex="0043"/>
  <outline>
    <contour>
      <point x="325.0" y="-10.0" type="curve" smooth="yes"/>
      <point x="498.86717557252" y="-10.0"/>
      <point x="583.0" y="69.2818181818"/>
      <point x="583.0" y="138.8" type="curve" smooth="yes"/>
      <point x="583.0" y="168.2"/>
      <point x="571.2" y="191.0"/>
      <point x="551.0" y="191.0" type="curve" smooth="yes"/>
      <point x="516.8" y="191.0"/>
      <point x="473.987654321" y="106.0"/>
      <point x="330.0" y="106.0" type="curve" smooth="yes"/>
      <point x="223.67058823528" y="106.0"/>
      <point x="156.0" y="168.0"/>
      <point x="156.0" y="280.8" type="curve" smooth="yes"/>
      <point x="156.0" y="436.8"/>
      <point x="252.5118644068" y="587.2"/>
      <point x="401.2" y="587.2" type="curve" smooth="yes"/>
      <point x="449.0" y="587.2"/>
      <point x="455.8" y="567.6"/>
      <point x="455.8" y="546.8" type="curve" smooth="yes"/>
      <point x="455.8" y="521.4"/>
      <point x="458.4" y="500.0"/>
      <point x="484.8" y="500.0" type="curve" smooth="yes"/>
      <point x="524.4" y="500.0"/>
      <point x="558.0" y="551.2"/>
      <point x="558.0" y="607.0" type="curve" smooth="yes"/>
      <point x="558.0" y="669.8"/>
      <point x="521.0" y="711.0"/>
      <point x="424.8" y="711.0" type="curve" smooth="yes"/>
      <point x="210.36083916086" y="711.0"/>
      <point x="35.0" y="506.0"/>
      <point x="35.0" y="289.0" type="curve" smooth="yes"/>
      <point x="35.0" y="121.0"/>
      <point x="135.66455696202" y="-10.0"/>
    </contour>
  </outline>
</glyph>
<glyph name="D" format="2">
  <advance width="687.0"/>
  <unicode hex="0044"/>
  <outline>
    <contour>
      <point x="217.8" y="-10.0" type="curve" smooth="yes"/>
      <point x="413.6" y="-10.0"/>
      <point x="642.4" y="213.2"/>
      <point x="642.4" y="460.4" type="curve" smooth="yes"/>
      <point x="642.4" y="608.6"/>
      <point x="544.8" y="709.0"/>
      <point x="375.8" y="709.0" type="curve" smooth="yes"/>
      <point x="243.41075268816002" y="709.0"/>
      <point x="74.3647939698" y="657.22169286428"/>
      <point x="30.8" y="624.2" type="curve" smooth="yes"/>
      <point x="17.8" y="613.6"/>
      <point x="13.0" y="603.4"/>
      <point x="13.0" y="588.4" type="curve" smooth="yes"/>
      <point x="13.0" y="548.4"/>
      <point x="55.4" y="516.2"/>
      <point x="106.8" y="516.2" type="curve" smooth="yes"/>
      <point x="171.74071146244" y="516.2"/>
      <point x="230.39683794468" y="576.8"/>
      <point x="371.8" y="576.8" type="curve" smooth="yes"/>
      <point x="479.4" y="576.8"/>
      <point x="510.4" y="533.6"/>
      <point x="510.4" y="454.8" type="curve" smooth="yes"/>
      <point x="510.4" y="262.4"/>
      <point x="358.4" y="149.2"/>
      <point x="166.0" y="105.8" type="curve"/>
      <point x="234.8" y="79.4" type="line"/>
      <point x="228.4" y="120.8"/>
      <point x="225.2" y="154.6"/>
      <point x="225.2" y="182.4" type="curve" smooth="yes"/>
      <point x="225.2" y="303.8"/>
      <point x="240.8" y="446.4"/>
      <point x="240.8" y="544.6" type="curve" smooth="yes"/>
      <point x="240.8" y="579.0"/>
      <point x="213.2" y="607.0"/>
      <point x="178.8" y="607.0" type="curve" smooth="yes"/>
      <point x="134.2" y="607.0"/>
      <point x="116.2" y="591.2"/>
      <point x="112.4" y="550.4" type="curve" smooth="yes"/>
      <point x="99.8" y="419.2"/>
      <point x="92.8" y="297.6"/>
      <point x="92.8" y="142.0" type="curve" smooth="yes"/>
      <point x="92.8" y="67.0"/>
      <point x="145.4" y="-10.0"/>
    </contour>
  </outline>
</glyph>
<glyph name="E" format="2">
  <advance width="673.0"/>
  <unicode hex="0045"/>
  <outline>
    <contour>
      <point x="110.00000000002001" y="546.00000000002" type="curve" smooth="yes"/>
      <point x="80.08166504671999" y="467.5933290878"/>
      <point x="56.00000000002" y="372.95754716982"/>
      <point x="56.00000000002" y="293.0" type="curve" smooth="yes"/>
      <point x="56.00000000002" y="121.44574780058"/>
      <point x="173.00000000002" y="-7.0"/>
      <point x="333.99999999998" y="-7.0" type="curve" smooth="yes"/>
      <point x="541.99999999998" y="-7.0"/>
      <point x="636.99999999998" y="32.00000000002"/>
      <point x="636.99999999998" y="72.0" type="curve" smooth="yes"/>
      <point x="636.99999999998" y="107.99999999998"/>
      <point x="614.11267605632" y="140.00000000002"/>
      <point x="572.0" y="140.00000000002" type="curve" smooth="yes"/>
      <point x="493.00862068968" y="140.00000000002"/>
      <point x="479.99999999998" y="113.00000000002"/>
      <point x="334.0" y="113.00000000002" type="curve" smooth="yes"/>
      <point x="244.99999999998" y="113.00000000002"/>
      <point x="176.99999999998" y="189.0"/>
      <point x="177.99999999998" y="293.00000000002" type="curve" smooth="yes"/>
      <point x="178.99999999998" y="380.0"/>
      <point x="205.7236894742" y="480.7257210539"/>
      <point x="243.99999999998" y="572.0" type="curve" smooth="yes"/>
      <point x="258.63800108818" y="609.08293608998"/>
      <point x="228.72549019608" y="626.00000000002"/>
      <point x="203.00000000002" y="626.00000000002" type="curve" smooth="yes"/>
      <point x="161.46601941748" y="626.00000000002"/>
      <point x="125.839683536" y="591.5390901659999"/>
    </contour>
    <contour>
      <point x="166.00000000002" y="257.99999999998" type="curve" smooth="yes"/>
      <point x="235.00000000002" y="273.99999999998"/>
      <point x="338.00000000002" y="289.0"/>
      <point x="451.00000000002" y="296.00000000002" type="curve" smooth="yes"/>
      <point x="498.00000000002" y="298.99999999998"/>
      <point x="536.00000000002" y="321.00000000002"/>
      <point x="536.00000000002" y="369.00000000002" type="curve" smooth="yes"/>
      <point x="536.00000000002" y="403.99999999998"/>
      <point x="523.00000000002" y="414.99999999998"/>
      <point x="469.99999999998" y="414.99999999998" type="curve" smooth="yes"/>
      <point x="368.99999999998" y="412.0"/>
      <point x="258.00000000002" y="397.00000000002"/>
      <point x="173.99999999998" y="380.99999999998" type="curve" smooth="yes"/>
      <point x="133.99999999998" y="373.00000000002"/>
      <point x="108.0" y="347.0"/>
      <point x="108.0" y="317.0" type="curve" smooth="yes"/>
      <point x="108.0" y="280.99999999998"/>
      <point x="120.99999999998" y="247.99999999998"/>
    </contour>
    <contour>
      <point x="142.00000000002" y="559.0" type="curve" smooth="yes"/>
      <point x="247.63488372092002" y="559.0"/>
      <point x="389.0" y="593.99999999998"/>
      <point x="582.99999999998" y="593.99999999998" type="curve" smooth="yes"/>
      <point x="615.00000000002" y="593.99999999998"/>
      <point x="626.0" y="613.99999999998"/>
      <point x="626.0" y="639.99999999998" type="curve" smooth="yes"/>
      <point x="626.0" y="679.8769230769"/>
      <point x="587.99999999998" y="712.00000000002"/>
      <point x="523.00000000002" y="712.00000000002" type="curve" smooth="yes"/>
      <point x="416.00000000002" y="712.00000000002"/>
      <point x="229.81752055840002" y="700.4313257793"/>
      <point x="89.99999999998" y="664.0" type="curve" smooth="yes"/>
      <point x="71.0" y="659.00000000002"/>
      <point x="56.00000000002" y="639.00000000002"/>
      <point x="56.00000000002" y="621.0" type="curve" smooth="yes"/>
      <point x="56.00000000002" y="586.55555555562"/>
      <point x="85.25773195878" y="559.0"/>
    </contour>
  </outline>
</glyph>
<glyph name="F" format="2">
  <advance width="571.0"/>
  <unicode hex="0046"/>
  <outline>
    <contour>
      <point x="203.00000000002" y="270.0" type="curve" smooth="yes"/>
      <point x="199.99999999998" y="363.00000000002"/>
      <point x="218.8" y="451.0"/>
      <point x="226.8" y="549.4" type="curve" smooth="yes"/>
      <point x="229.0" y="579.2"/>
      <point x="219.0" y="614.8"/>
      <point x="189.0" y="614.99999999998" type="curve" smooth="yes"/>
      <point x="137.4" y="614.8"/>
      <point x="114.2" y="577.4"/>
      <point x="105.4" y="525.2" type="curve" smooth="yes"/>
      <point x="91.4" y="448.2"/>
      <point x="82.00000000002" y="376.0"/>
      <point x="82.00000000002" y="294.0" type="curve" smooth="yes"/>
      <point x="82.00000000002" y="175.0"/>
      <point x="100.0" y="103.00000000002"/>
      <point x="129.99999999998" y="55.99999999998" type="curve" smooth="yes"/>
      <point x="162.0" y="5.0"/>
      <point x="198.00000000002" y="-10.0"/>
      <point x="230.00000000002" y="-10.0" type="curve" smooth="yes"/>
      <point x="260.00000000002" y="-10.0"/>
      <point x="270.99999999998" y="4.0"/>
      <point x="270.99999999998" y="29.000000000020002" type="curve" smooth="yes"/>
      <point x="270.99999999998" y="65.99999999998"/>
      <point x="208.0" y="104.00000000002"/>
    </contour>
    <contour>
      <point x="489.00000000002" y="590.99999999998" type="curve" smooth="yes"/>
      <point x="522.00000000002" y="590.99999999998"/>
      <point x="533.00000000002" y="603.0"/>
      <point x="533.00000000002" y="630.99999999998" type="curve" smooth="yes"/>
      <point x="533.00000000002" y="678.00000000002"/>
      <point x="488.99999999998" y="709.00000000002"/>
      <point x="432.0" y="711.0" type="curve" smooth="yes"/>
      <point x="313.0" y="714.0"/>
      <point x="155.99999999998" y="686.0"/>
      <point x="58.99999999998" y="663.0" type="curve" smooth="yes"/>
      <point x="30.0" y="656.00000000002"/>
      <point x="20.0" y="637.0"/>
      <point x="20.0" y="618.0" type="curve" smooth="yes"/>
      <point x="20.0" y="587.4"/>
      <point x="48.6" y="552.2"/>
      <point x="110.8" y="552.2" type="curve" smooth="yes"/>
      <point x="154.8" y="552.2"/>
      <point x="276.618556701" y="590.99999999998"/>
    </contour>
    <contour>
      <point x="190.0" y="241.99999999998" type="curve" smooth="yes"/>
      <point x="242.0" y="254.00000000002"/>
      <point x="319.5489007982" y="264.60308847150003"/>
      <point x="404.99999999998" y="269.99999999998" type="curve" smooth="yes"/>
      <point x="460.99999999998" y="274.00000000002"/>
      <point x="507.0" y="297.3417721519"/>
      <point x="507.0" y="350.0" type="curve"/>
      <point x="507.0" y="379.0"/>
      <point x="493.98305084747994" y="387.99999999998"/>
      <point x="443.0" y="387.99999999998" type="curve" smooth="yes"/>
      <point x="351.00000000002" y="385.0"/>
      <point x="250.0668021419" y="375.48891469372"/>
      <point x="173.99999999998" y="360.99999999998" type="curve" smooth="yes"/>
      <point x="133.76910839392" y="352.95382167878"/>
      <point x="108.00000000002" y="322.00000000002"/>
      <point x="108.00000000002" y="288.00000000002" type="curve" smooth="yes"/>
      <point x="108.00000000002" y="260.00000000002"/>
      <point x="127.4470269101" y="228.09933931332"/>
    </contour>
  </outline>
</glyph>
<glyph name="G" format="2">
  <advance width="739.0"/>
  <unicode hex="0047"/>
  <outline>
    <contour>
      <point x="361.6" y="254.0" type="curve" smooth="yes"/>
      <point x="419.68037383176" y="254.0"/>
      <point x="484.24859813084" y="291.8"/>
      <point x="663.8" y="291.8" type="curve" smooth="yes"/>
      <point x="722.96" y="291.8"/>
      <point x="747.8" y="325.8"/>
      <point x="747.8" y="362.2" type="curve" smooth="yes"/>
      <point x="747.8" y="388.95463601536"/>
      <point x="731.2" y="406.2"/>
      <point x="644.0" y="406.2" type="curve" smooth="yes"/>
      <point x="534.6" y="405.0"/>
      <point x="438.4" y="386.4"/>
      <point x="345.0" y="362.0" type="curve" smooth="yes"/>
      <point x="295.29072620284" y="348.88140333679996"/>
      <point x="282.0" y="333.71428571426"/>
      <point x="282.0" y="308.8" type="curve" smooth="yes"/>
      <point x="282.0" y="276.2"/>
      <point x="315.4" y="254.0"/>
    </contour>
    <contour>
      <point x="680.00000000002" y="-103.0" type="curve" smooth="yes"/>
      <point x="700.0" y="-103.0"/>
      <point x="724.0" y="-89.33333333332"/>
      <point x="724.0" y="-62.00000000002" type="curve"/>
      <point x="724.0" y="-43.0"/>
      <point x="720.0" y="-30.000000000020002"/>
      <point x="699.99999999998" y="5.0" type="curve" smooth="yes"/>
      <point x="663.00000000002" y="67.99999999998"/>
      <point x="634.00000000002" y="199.99999999998"/>
      <point x="634.00000000002" y="297.0" type="curve" smooth="yes"/>
      <point x="634.00000000002" y="329.0"/>
      <point x="607.0" y="348.0"/>
      <point x="561.0" y="348.0" type="curve" smooth="yes"/>
      <point x="528.6119402985" y="348.0"/>
      <point x="517.2" y="333.0"/>
      <point x="499.0" y="300.8" type="curve" smooth="yes"/>
      <point x="432.2" y="177.0"/>
      <point x="345.99920318724" y="104.8"/>
      <point x="255.0" y="104.8" type="curve" smooth="yes"/>
      <point x="178.9483870968" y="104.8"/>
      <point x="143.0" y="164.1125"/>
      <point x="143.0" y="238.2" type="curve" smooth="yes"/>
      <point x="143.0" y="388.4"/>
      <point x="317.2" y="575.2"/>
      <point x="446.0" y="575.00000000002" type="curve" smooth="yes"/>
      <point x="488.8" y="575.2"/>
      <point x="447.8" y="518.4"/>
      <point x="496.0" y="518.4" type="curve" smooth="yes"/>
      <point x="535.2" y="518.4"/>
      <point x="579.0" y="578.0"/>
      <point x="579.0" y="634.0" type="curve" smooth="yes"/>
      <point x="579.0" y="674.0"/>
      <point x="551.90090090088" y="708.0"/>
      <point x="485.0" y="708.0" type="curve" smooth="yes"/>
      <point x="278.99999999998" y="708.0"/>
      <point x="25.0" y="480.4"/>
      <point x="25.0" y="239.8" type="curve" smooth="yes"/>
      <point x="25.0" y="87.4"/>
      <point x="104.0" y="-10.0"/>
      <point x="256.8" y="-10.0" type="curve" smooth="yes"/>
      <point x="365.0" y="-10.0"/>
      <point x="457.4" y="44.6"/>
      <point x="528.0" y="170.8" type="curve"/>
      <point x="536.4" y="73.4"/>
      <point x="561.4707598268" y="-6.63267467522"/>
      <point x="583.0" y="-47.00000000002" type="curve" smooth="yes"/>
      <point x="604.36445457482" y="-86.52424096332"/>
      <point x="640.0" y="-103.0"/>
    </contour>
  </outline>
</glyph>
<glyph name="H" format="2">
  <advance width="724.4"/>
  <unicode hex="0048"/>
  <outline>
    <contour>
      <point x="185.8" y="-12.0" type="curve" smooth="yes"/>
      <point x="216.6" y="-12.0"/>
      <point x="240.8" y="11.799999999999999"/>
      <point x="240.8" y="40.0" type="curve" smooth="yes"/>
      <point x="240.8" y="185.0"/>
      <point x="233.8" y="395.6"/>
      <point x="233.8" y="610.0" type="curve" smooth="yes"/>
      <point x="233.8" y="677.0"/>
      <point x="192.2" y="709.0"/>
      <point x="149.2" y="709.0" type="curve" smooth="yes"/>
      <point x="106.2" y="709.0"/>
      <point x="87.6" y="693.2"/>
      <point x="87.6" y="650.0" type="curve" smooth="yes"/>
      <point x="87.6" y="494.8"/>
      <point x="107.8" y="262.6"/>
      <point x="103.0" y="101.4" type="curve" smooth="yes"/>
      <point x="100.6" y="40.0"/>
      <point x="146.6" y="-12.0"/>
    </contour>
    <contour>
      <point x="595.2" y="-10.0" type="curve" smooth="yes"/>
      <point x="624.6" y="-10.0"/>
      <point x="640.2" y="13.4"/>
      <point x="637.8" y="40.2" type="curve" smooth="yes"/>
      <point x="632.6" y="121.0"/>
      <point x="619.8" y="176.0"/>
      <point x="618.8" y="233.0" type="curve" smooth="yes"/>
      <point x="617.8" y="322.4"/>
      <point x="624.8" y="464.0"/>
      <point x="624.8" y="578.0" type="curve" smooth="yes"/>
      <point x="624.8" y="661.8"/>
      <point x="590.2" y="704.0"/>
      <point x="545.0" y="704.0" type="curve" smooth="yes"/>
      <point x="518.6" y="704.0"/>
      <point x="494.2" y="689.4"/>
      <point x="494.2" y="656.0" type="curve" smooth="yes"/>
      <point x="494.2" y="569.0"/>
      <point x="482.4" y="438.0"/>
      <point x="482.4" y="299.0" type="curve" smooth="yes"/>
      <point x="482.4" y="88.6"/>
      <point x="515.2" y="-10.0"/>
    </contour>
    <contour>
      <point x="170.8" y="290.4" type="curve" smooth="yes"/>
      <point x="235.0" y="290.4"/>
      <point x="339.2" y="320.4"/>
      <point x="626.8" y="320.4" type="curve" smooth="yes"/>
      <point x="658.2" y="320.4"/>
      <point x="676.6" y="337.4"/>
      <point x="676.6" y="364.4" type="curve" smooth="yes"/>
      <point x="676.6" y="394.2"/>
      <point x="642.0" y="443.4"/>
      <point x="545.8" y="443.4" type="curve" smooth="yes"/>
      <point x="389.8" y="443.4"/>
      <point x="236.0" y="437.0"/>
      <point x="81.0" y="402.2" type="curve" smooth="yes"/>
      <point x="54.2" y="396.2"/>
      <point x="47.8" y="381.8"/>
      <point x="47.8" y="364.2" type="curve" smooth="yes"/>
      <point x="47.8" y="328.2"/>
      <point x="91.4" y="290.4"/>
    </contour>
  </outline>
</glyph>
<glyph name="I" format="2">
  <advance width="608.8"/>
  <unicode hex="0049"/>
  <outline>
    <contour>
      <point x="144.0" y="-11.0" type="curve" smooth="yes"/>
      <point x="197.7069767442" y="-11.0"/>
      <point x="321.27146974064" y="0.0"/>
      <point x="471.0" y="0.0" type="curve" smooth="yes"/>
      <point x="554.55675675676" y="0.0"/>
      <point x="590.0" y="33.7846153846"/>
      <point x="590.0" y="74.8" type="curve" smooth="yes"/>
      <point x="590.0" y="103.0"/>
      <point x="572.6" y="124.8"/>
      <point x="496.0" y="124.8" type="curve" smooth="yes"/>
      <point x="330.2" y="124.8"/>
      <point x="241.4" y="135.39999999999998"/>
      <point x="73.6" y="110.19999999999999" type="curve" smooth="yes"/>
      <point x="43.2" y="105.8"/>
      <point x="29.0" y="85.19999999999999"/>
      <point x="29.0" y="60.8" type="curve" smooth="yes"/>
      <point x="29.0" y="19.16"/>
      <point x="62.20970873788" y="-11.0"/>
    </contour>
    <contour>
      <point x="104.6" y="553.0" type="curve" smooth="yes"/>
      <point x="178.4" y="553.0"/>
      <point x="241.6" y="574.2"/>
      <point x="454.0" y="574.2" type="curve" smooth="yes"/>
      <point x="522.0" y="574.2"/>
      <point x="575.0" y="605.8"/>
      <point x="575.0" y="654.2" type="curve" smooth="yes"/>
      <point x="575.0" y="697.6"/>
      <point x="554.2" y="708.0"/>
      <point x="485.8" y="708.0" type="curve" smooth="yes"/>
      <point x="367.8" y="708.0"/>
      <point x="218.4" y="697.8"/>
      <point x="95.8" y="679.2" type="curve" smooth="yes"/>
      <point x="52.8" y="672.6"/>
      <point x="27.4" y="649.4"/>
      <point x="27.4" y="617.6" type="curve" smooth="yes"/>
      <point x="27.4" y="581.6"/>
      <point x="49.6" y="553.0"/>
    </contour>
    <contour>
      <point x="315.2" y="88.0" type="curve" smooth="yes"/>
      <point x="345.8" y="88.0"/>
      <point x="363.2" y="105.4"/>
      <point x="363.2" y="141.0" type="curve" smooth="yes"/>
      <point x="363.2" y="318.2"/>
      <point x="380.2" y="460.6"/>
      <point x="380.2" y="535.0" type="curve" smooth="yes"/>
      <point x="380.2" y="580.6"/>
      <point x="343.33333333332" y="617.0"/>
      <point x="298.6" y="617.0" type="curve" smooth="yes"/>
      <point x="260.4" y="617.0"/>
      <point x="248.4" y="595.2"/>
      <point x="248.4" y="552.0" type="curve" smooth="yes"/>
      <point x="248.4" y="448.8"/>
      <point x="232.6" y="307.6"/>
      <point x="232.6" y="165.0" type="curve" smooth="yes"/>
      <point x="232.6" y="118.0"/>
      <point x="265.1304347826" y="88.0"/>
    </contour>
  </outline>
</glyph>
<glyph name="J" format="2">
  <advance width="626.6"/>
  <unicode hex="004A"/>
  <outline>
    <contour>
      <point x="290.4" y="-12.0" type="curve" smooth="yes"/>
      <point x="464.4" y="-12.0"/>
      <point x="557.4" y="60.8"/>
      <point x="557.4" y="222.0" type="curve" smooth="yes"/>
      <point x="557.4" y="321.6"/>
      <point x="517.2" y="499.6"/>
      <point x="478.6" y="603.4" type="curve" smooth="yes"/>
      <point x="458.6" y="658.4"/>
      <point x="428.0" y="674.8"/>
      <point x="369.4" y="676.0" type="curve" smooth="yes"/>
      <point x="338.6" y="676.0"/>
      <point x="322.6" y="644.0"/>
      <point x="335.8" y="610.2" type="curve" smooth="yes"/>
      <point x="378.8" y="506.8"/>
      <point x="423.4" y="332.0"/>
      <point x="423.4" y="240.0" type="curve" smooth="yes"/>
      <point x="423.4" y="155.8"/>
      <point x="390.6" y="117.8"/>
      <point x="290.4" y="117.8" type="curve" smooth="yes"/>
      <point x="208.4" y="117.8"/>
      <point x="180.0" y="150.2"/>
      <point x="180.0" y="191.6" type="curve" smooth="yes"/>
      <point x="180.0" y="227.2"/>
      <point x="208.4" y="247.6"/>
      <point x="208.4" y="276.6" type="curve" smooth="yes"/>
      <point x="208.4" y="299.2"/>
      <point x="195.0" y="310.4"/>
      <point x="169.6" y="310.4" type="curve" smooth="yes"/>
      <point x="94.2" y="310.4"/>
      <point x="51.400000000000006" y="227.6"/>
      <point x="51.400000000000006" y="167.0" type="curve" smooth="yes"/>
      <point x="51.400000000000006" y="55.4"/>
      <point x="148.8" y="-12.0"/>
    </contour>
    <contour>
      <point x="191.2" y="569.2" type="curve" smooth="yes"/>
      <point x="271.2" y="569.2"/>
      <point x="397.8" y="584.8"/>
      <point x="528.4" y="584.8" type="curve" smooth="yes"/>
      <point x="569.2" y="584.8"/>
      <point x="590.4" y="601.8"/>
      <point x="590.4" y="632.8" type="curve" smooth="yes"/>
      <point x="590.4" y="697.8"/>
      <point x="528.0" y="712.0"/>
      <point x="472.4" y="712.0" type="curve" smooth="yes"/>
      <point x="354.0" y="712.0"/>
      <point x="293.8" y="700.0"/>
      <point x="208.6" y="700.0" type="curve" smooth="yes"/>
      <point x="167.6" y="700.0"/>
      <point x="141.2" y="713.0"/>
      <point x="101.0" y="713.0" type="curve" smooth="yes"/>
      <point x="74.6" y="713.0"/>
      <point x="59.8" y="695.8"/>
      <point x="59.8" y="669.0" type="curve" smooth="yes"/>
      <point x="59.8" y="596.2"/>
      <point x="137.2" y="569.2"/>
    </contour>
  </outline>
</glyph>
<glyph name="K" format="2">
  <advance width="681.0"/>
  <unicode hex="004B"/>
  <outline>
    <contour>
      <point x="167.4" y="-11.0" type="curve" smooth="yes"/>
      <point x="193.0" y="-11.0"/>
      <point x="209.0" y="4.8"/>
      <point x="209.0" y="31.0" type="curve" smooth="yes"/>
      <point x="209.0" y="81.4"/>
      <point x="197.0" y="101.4"/>
      <point x="197.0" y="205.8" type="curve" smooth="yes"/>
      <point x="197.0" y="332.0"/>
      <point x="220.8" y="467.0"/>
      <point x="220.8" y="552.0" type="curve" smooth="yes"/>
      <point x="220.8" y="617.0"/>
      <point x="209.4" y="710.0"/>
      <point x="124.4" y="710.0" type="curve" smooth="yes"/>
      <point x="92.0" y="710.0"/>
      <point x="78.2" y="693.4"/>
      <point x="78.2" y="664.0" type="curve" smooth="yes"/>
      <point x="78.2" y="631.6"/>
      <point x="89.0" y="611.4"/>
      <point x="89.0" y="550.8" type="curve" smooth="yes"/>
      <point x="89.0" y="482.8"/>
      <point x="66.2" y="345.4"/>
      <point x="66.2" y="187.0" type="curve" smooth="yes"/>
      <point x="66.2" y="41.0"/>
      <point x="89.4" y="-11.0"/>
    </contour>
    <contour>
      <point x="600.2" y="-11.0" type="curve" smooth="yes"/>
      <point x="643.13125" y="-11.0"/>
      <point x="660.0" y="11.64117647056"/>
      <point x="660.0" y="48.8" type="curve" smooth="yes"/>
      <point x="660.0" y="86.18787878789999"/>
      <point x="638.4" y="111.0"/>
      <point x="592.6" y="121.39999999999999" type="curve" smooth="yes"/>
      <point x="409.0" y="161.0"/>
      <point x="305.0" y="256.6149068323"/>
      <point x="305.0" y="314.6" type="curve" smooth="yes"/>
      <point x="305.0" y="368.8"/>
      <point x="400.6" y="488.2"/>
      <point x="529.6" y="562.6" type="curve" smooth="yes"/>
      <point x="577.0" y="589.8"/>
      <point x="592.4" y="609.6"/>
      <point x="592.4" y="648.8" type="curve" smooth="yes"/>
      <point x="592.4" y="689.8"/>
      <point x="566.2" y="709.8"/>
      <point x="530.8" y="709.8" type="curve" smooth="yes"/>
      <point x="509.2" y="709.8"/>
      <point x="483.6" y="699.8"/>
      <point x="448.8" y="676.4" type="curve" smooth="yes"/>
      <point x="312.6" y="584.8"/>
      <point x="185.0" y="433.6"/>
      <point x="185.0" y="298.4" type="curve" smooth="yes"/>
      <point x="185.0" y="104.4"/>
      <point x="484.0" y="-11.0"/>
    </contour>
  </outline>
</glyph>
<glyph name="L" format="2">
  <advance width="538.0"/>
  <unicode hex="004C"/>
  <outline>
    <contour>
      <point x="288.4" y="-9.0" type="curve" smooth="yes"/>
      <point x="358.74420600860003" y="-9.0"/>
      <point x="431.85651041752" y="6.07199731732"/>
      <point x="482.2" y="39.2" type="curve" smooth="yes"/>
      <point x="510.0" y="60.4"/>
      <point x="522.2" y="90.2"/>
      <point x="522.2" y="121.8" type="curve" smooth="yes"/>
      <point x="522.2" y="149.2"/>
      <point x="505.0" y="173.6"/>
      <point x="479.0" y="173.6" type="curve" smooth="yes"/>
      <point x="444.14285714284" y="173.6"/>
      <point x="410.4" y="120.8"/>
      <point x="293.8" y="120.8" type="curve" smooth="yes"/>
      <point x="215.0" y="120.8"/>
      <point x="184.8" y="163.0"/>
      <point x="184.8" y="238.0" type="curve" smooth="yes"/>
      <point x="184.8" y="335.4"/>
      <point x="236.0" y="468.2"/>
      <point x="236.0" y="599.6" type="curve" smooth="yes"/>
      <point x="236.0" y="654.4"/>
      <point x="209.89565217391998" y="710.0"/>
      <point x="156.0" y="710.0" type="curve" smooth="yes"/>
      <point x="117.29523809524" y="710.0"/>
      <point x="105.4" y="685.2"/>
      <point x="105.4" y="646.0" type="curve" smooth="yes"/>
      <point x="105.4" y="529.0"/>
      <point x="54.400000000000006" y="404.1516372796"/>
      <point x="54.400000000000006" y="251.0" type="curve" smooth="yes"/>
      <point x="54.400000000000006" y="83.0"/>
      <point x="136.22105263155999" y="-9.0"/>
    </contour>
  </outline>
</glyph>
<glyph name="M" format="2">
  <advance width="994.0"/>
  <unicode hex="004D"/>
  <outline>
    <contour>
      <point x="225.0" y="515.4" type="curve" smooth="yes"/>
      <point x="230.6" y="422.2"/>
      <point x="174.4" y="400.8"/>
      <point x="195.6" y="502.0" type="curve" smooth="yes"/>
      <point x="224.0" y="631.4"/>
      <point x="271.6" y="709.0"/>
      <point x="331.8" y="709.0" type="curve" smooth="yes"/>
      <point x="406.0" y="709.0"/>
      <point x="456.0" y="613.6"/>
      <point x="488.0" y="345.6" type="curve" smooth="yes"/>
      <point x="495.0" y="297.0"/>
      <point x="497.0" y="238.2"/>
      <point x="524.2" y="164.39999999999998" type="curve" smooth="yes"/>
      <point x="538.2" y="129.0"/>
      <point x="463.0" y="149.79999999999998"/>
      <point x="492.2" y="205.79999999999998" type="curve" smooth="yes"/>
      <point x="537.8" y="290.0"/>
      <point x="566.0" y="455.8"/>
      <point x="602.2" y="558.6" type="curve" smooth="yes"/>
      <point x="633.4" y="647.4"/>
      <point x="669.4" y="711.4"/>
      <point x="732.6" y="711.4" type="curve" smooth="yes"/>
      <point x="794.4" y="711.4"/>
      <point x="869.0" y="681.4"/>
      <point x="879.2" y="460.4" type="curve" smooth="yes"/>
      <point x="884.0" y="335.8"/>
      <point x="906.8" y="181.4"/>
      <point x="946.2" y="73.4" type="curve" smooth="yes"/>
      <point x="961.4" y="31.599999999999998"/>
      <point x="951.0" y="-9.0"/>
      <point x="908.8" y="-9.0" type="curve" smooth="yes"/>
      <point x="866.2" y="-9.0"/>
      <point x="827.8" y="10.4"/>
      <point x="798.6" y="66.8" type="curve" smooth="yes"/>
      <point x="757.4" y="144.6"/>
      <point x="747.8" y="307.8"/>
      <point x="739.2" y="416.6" type="curve" smooth="yes"/>
      <point x="734.6" y="485.6"/>
      <point x="724.0" y="532.4"/>
      <point x="697.8" y="577.4" type="curve" smooth="yes"/>
      <point x="673.4" y="617.0"/>
      <point x="799.4" y="620.8"/>
      <point x="748.4" y="557.6" type="curve" smooth="yes"/>
      <point x="691.8" y="487.2"/>
      <point x="663.6" y="268.6"/>
      <point x="566.4" y="36.4" type="curve" smooth="yes"/>
      <point x="553.6" y="5.4"/>
      <point x="530.0" y="-9.0"/>
      <point x="506.0" y="-9.0" type="curve" smooth="yes"/>
      <point x="486.0" y="-9.0"/>
      <point x="461.0" y="2.0"/>
      <point x="445.2" y="25.4" type="curve" smooth="yes"/>
      <point x="402.8" y="87.8"/>
      <point x="377.4" y="202.6"/>
      <point x="361.8" y="329.8" type="curve" smooth="yes"/>
      <point x="352.0" y="413.6"/>
      <point x="339.6" y="473.8"/>
      <point x="315.8" y="538.0" type="curve" smooth="yes"/>
      <point x="289.4" y="613.6"/>
      <point x="370.4" y="617.6"/>
      <point x="323.8" y="537.0" type="curve" smooth="yes"/>
      <point x="267.0" y="429.4"/>
      <point x="222.0" y="247.8"/>
      <point x="222.0" y="27.2" type="curve" smooth="yes"/>
      <point x="222.0" y="2.0"/>
      <point x="201.0" y="-12.0"/>
      <point x="180.2" y="-12.0" type="curve" smooth="yes"/>
      <point x="100.0" y="-12.0"/>
      <point x="85.4" y="85.6"/>
      <point x="85.4" y="201.0" type="curve" smooth="yes"/>
      <point x="85.4" y="296.8"/>
      <point x="94.2" y="377.2"/>
      <point x="94.2" y="453.8" type="curve" smooth="yes"/>
      <point x="94.2" y="549.4"/>
      <point x="73.4" y="590.8"/>
      <point x="73.4" y="628.0" type="curve" smooth="yes"/>
      <point x="73.4" y="645.6"/>
      <point x="84.2" y="662.4"/>
      <point x="111.4" y="662.4" type="curve" smooth="yes"/>
      <point x="180.2" y="662.4"/>
      <point x="222.6" y="590.6"/>
    </contour>
  </outline>
</glyph>
<glyph name="N" format="2">
  <advance width="801.4"/>
  <unicode hex="004E"/>
  <outline>
    <contour>
      <point x="135.0" y="-14.0" type="curve" smooth="yes"/>
      <point x="171.0" y="-14.0"/>
      <point x="192.4" y="5.6"/>
      <point x="200.8" y="36.2" type="curve" smooth="yes"/>
      <point x="224.0" y="114.0"/>
      <point x="235.0" y="217.0"/>
      <point x="235.0" y="342.0" type="curve" smooth="yes"/>
      <point x="235.0" y="403.2"/>
      <point x="231.8" y="458.0"/>
      <point x="220.0" y="549.2" type="curve"/>
      <point x="197.0" y="544.0" type="line"/>
      <point x="365.8215146045" y="348.54831858576"/>
      <point x="402.39108910892" y="-14.2"/>
      <point x="585.0" y="-14.2" type="curve" smooth="yes"/>
      <point x="694.2" y="-14.2"/>
      <point x="712.0" y="93.44427480918"/>
      <point x="712.0" y="242.0" type="curve" smooth="yes"/>
      <point x="712.0" y="391.0"/>
      <point x="693.4" y="483.2"/>
      <point x="719.4" y="612.2" type="curve" smooth="yes"/>
      <point x="727.5786297227199" y="652.69789756398"/>
      <point x="712.67524752474" y="711.0"/>
      <point x="652.4" y="711.0" type="curve" smooth="yes"/>
      <point x="621.70322580644" y="711.0"/>
      <point x="602.46417167814" y="693.45026954474"/>
      <point x="593.6" y="657.0" type="curve" smooth="yes"/>
      <point x="560.6" y="525.4"/>
      <point x="586.8" y="390.4"/>
      <point x="586.8" y="231.0" type="curve" smooth="yes"/>
      <point x="586.8" y="140.94152046784"/>
      <point x="562.2" y="110.0"/>
      <point x="536.8" y="86.0" type="curve"/>
      <point x="605.4" y="118.4" type="line"/>
      <point x="469.8" y="168.0"/>
      <point x="379.2" y="710.0"/>
      <point x="156.0" y="710.0" type="curve" smooth="yes"/>
      <point x="112.0" y="710.0"/>
      <point x="89.0" y="678.0"/>
      <point x="89.0" y="638.0" type="curve" smooth="yes"/>
      <point x="89.0" y="605.0"/>
      <point x="105.0" y="457.0"/>
      <point x="105.0" y="342.0" type="curve" smooth="yes"/>
      <point x="105.0" y="135.8"/>
      <point x="74.6" y="99.6"/>
      <point x="74.6" y="44.8" type="curve" smooth="yes"/>
      <point x="74.6" y="9.399999999999999"/>
      <point x="93.0" y="-14.0"/>
    </contour>
  </outline>
</glyph>
<glyph name="O" format="2">
  <advance width="732.0"/>
  <unicode hex="004F"/>
  <outline>
    <contour>
      <point x="305.4" y="515.4" type="curve" smooth="yes"/>
      <point x="228.6" y="457.4"/>
      <point x="179.0" y="395.0"/>
      <point x="179.0" y="290.0" type="curve" smooth="yes"/>
      <point x="179.0" y="190.0"/>
      <point x="243.4" y="120.8"/>
      <point x="350.0" y="120.8" type="curve" smooth="yes"/>
      <point x="462.4" y="120.8"/>
      <point x="553.0" y="194.8"/>
      <point x="553.0" y="300.0" type="curve" smooth="yes"/>
      <point x="553.0" y="425.4"/>
      <point x="474.8" y="581.2"/>
      <point x="364.0" y="581.2" type="curve" smooth="yes"/>
      <point x="344.6" y="581.2"/>
      <point x="338.4" y="563.6"/>
      <point x="338.4" y="540.4" type="curve" smooth="yes"/>
      <point x="338.4" y="510.4"/>
      <point x="321.4" y="495.4"/>
      <point x="303.4" y="495.4" type="curve" smooth="yes"/>
      <point x="263.8" y="495.4"/>
      <point x="223.2" y="529.4"/>
      <point x="223.2" y="595.6" type="curve" smooth="yes"/>
      <point x="223.2" y="656.2"/>
      <point x="271.6" y="711.0"/>
      <point x="357.0" y="711.0" type="curve" smooth="yes"/>
      <point x="549.4" y="711.0"/>
      <point x="683.0" y="506.2"/>
      <point x="683.0" y="300.0" type="curve" smooth="yes"/>
      <point x="683.0" y="129.4"/>
      <point x="535.0" y="-10.0"/>
      <point x="350.0" y="-10.0" type="curve" smooth="yes"/>
      <point x="174.4" y="-10.0"/>
      <point x="49.0" y="118.4"/>
      <point x="49.0" y="290.0" type="curve" smooth="yes"/>
      <point x="49.0" y="500.4"/>
      <point x="230.0" y="628.8"/>
      <point x="268.8" y="628.8" type="curve" smooth="yes"/>
      <point x="282.8" y="628.8"/>
      <point x="305.8" y="621.4"/>
      <point x="318.2" y="605.4" type="curve" smooth="yes"/>
      <point x="338.8" y="577.4"/>
      <point x="334.2" y="536.6"/>
    </contour>
  </outline>
</glyph>
<glyph name="P" format="2">
  <advance width="621.0"/>
  <unicode hex="0050"/>
  <outline>
    <contour>
      <point x="103.2" y="99.8" type="curve" smooth="yes"/>
      <point x="103.2" y="21.2"/>
      <point x="137.6" y="-10.0"/>
      <point x="187.8" y="-10.0" type="curve" smooth="yes"/>
      <point x="225.6" y="-10.0"/>
      <point x="236.8" y="22.599999999999998"/>
      <point x="236.8" y="88.0" type="curve" smooth="yes"/>
      <point x="236.8" y="256.4"/>
      <point x="184.4" y="356.0"/>
      <point x="184.4" y="466.0" type="curve" smooth="yes"/>
      <point x="184.4" y="537.8"/>
      <point x="232.6" y="577.0"/>
      <point x="328.0" y="577.0" type="curve" smooth="yes"/>
      <point x="388.2" y="577.0"/>
      <point x="444.8" y="545.2"/>
      <point x="444.8" y="480.0" type="curve" smooth="yes"/>
      <point x="444.8" y="406.4"/>
      <point x="366.2" y="332.0"/>
      <point x="272.8" y="332.0" type="curve" smooth="yes"/>
      <point x="215.0" y="332.0"/>
      <point x="203.0" y="350.0"/>
      <point x="177.2" y="350.0" type="curve" smooth="yes"/>
      <point x="151.8" y="350.0"/>
      <point x="131.8" y="333.6"/>
      <point x="131.8" y="303.0" type="curve" smooth="yes"/>
      <point x="131.8" y="250.4"/>
      <point x="193.8" y="201.0"/>
      <point x="278.2" y="201.0" type="curve" smooth="yes"/>
      <point x="444.8" y="201.0"/>
      <point x="575.4" y="342.6"/>
      <point x="575.4" y="480.0" type="curve" smooth="yes"/>
      <point x="575.4" y="625.0"/>
      <point x="463.8" y="708.0"/>
      <point x="327.8" y="708.0" type="curve" smooth="yes"/>
      <point x="130.2" y="708.0"/>
      <point x="53.8" y="611.2"/>
      <point x="53.8" y="466.0" type="curve" smooth="yes"/>
      <point x="53.8" y="351.8"/>
      <point x="103.2" y="274.2"/>
    </contour>
  </outline>
</glyph>
<glyph name="Q" format="2">
  <advance width="715.0"/>
  <unicode hex="0051"/>
  <outline>
    <contour>
      <point x="278.0" y="545.0" type="curve" smooth="yes"/>
      <point x="195.8640689882" y="494.9631684641"/>
      <point x="159.0" y="398.0"/>
      <point x="159.0" y="313.0" type="curve" smooth="yes"/>
      <point x="159.0" y="208.476744186"/>
      <point x="213.0" y="111.0"/>
      <point x="360.0" y="111.0" type="curve" smooth="yes"/>
      <point x="479.0" y="111.0"/>
      <point x="553.0" y="210.7826086957"/>
      <point x="553.0" y="315.0" type="curve" smooth="yes"/>
      <point x="553.0" y="447.1730103806"/>
      <point x="487.1006289308" y="584.0"/>
      <point x="384.0" y="584.0" type="curve" smooth="yes"/>
      <point x="335.0" y="584.0"/>
      <point x="290.0" y="534.0"/>
      <point x="258.0" y="472.0" type="curve" smooth="yes"/>
      <point x="242.0" y="441.0"/>
      <point x="227.0" y="431.0"/>
      <point x="204.0" y="431.0" type="curve" smooth="yes"/>
      <point x="158.0" y="431.0"/>
      <point x="146.0" y="500.0"/>
      <point x="169.0" y="545.0" type="curve" smooth="yes"/>
      <point x="221.0" y="644.0"/>
      <point x="317.0" y="709.0"/>
      <point x="399.0" y="709.0" type="curve" smooth="yes"/>
      <point x="548.4339622642" y="709.0"/>
      <point x="674.0" y="545.5572139303"/>
      <point x="674.0" y="327.0" type="curve" smooth="yes"/>
      <point x="674.0" y="150.4936708861"/>
      <point x="557.0" y="-9.0"/>
      <point x="360.0" y="-9.0" type="curve" smooth="yes"/>
      <point x="125.0" y="-9.0"/>
      <point x="40.0" y="144.0"/>
      <point x="40.0" y="313.0" type="curve" smooth="yes"/>
      <point x="40.0" y="436.0"/>
      <point x="96.844458914" y="574.9301162786"/>
      <point x="216.0" y="647.0" type="curve" smooth="yes"/>
      <point x="243.0" y="664.0"/>
      <point x="281.0" y="655.0"/>
      <point x="298.0" y="627.0" type="curve" smooth="yes"/>
      <point x="315.0" y="600.0"/>
      <point x="306.0" y="562.0"/>
    </contour>
    <contour>
      <point x="442.0" y="276.0" type="curve" smooth="yes"/>
      <point x="472.0" y="235.0"/>
      <point x="534.0" y="85.0"/>
      <point x="608.0" y="-8.0" type="curve" smooth="yes"/>
      <point x="663.5379426526" y="-78.6846542852"/>
      <point x="636.0" y="-136.0"/>
      <point x="594.0" y="-136.0" type="curve" smooth="yes"/>
      <point x="572.0" y="-136.0"/>
      <point x="559.7488468773" y="-130.7286077725"/>
      <point x="522.0" y="-94.0" type="curve" smooth="yes"/>
      <point x="446.2618234722" y="-19.2583784265"/>
      <point x="364.121194886" y="169.8226963705"/>
      <point x="310.0" y="249.0" type="curve" smooth="yes"/>
      <point x="268.0" y="309.0"/>
      <point x="293.0" y="336.0"/>
      <point x="330.0" y="336.0" type="curve" smooth="yes"/>
      <point x="390.0" y="336.0"/>
      <point x="410.0" y="321.0"/>
    </contour>
  </outline>
</glyph>
<glyph name="R" format="2">
  <advance width="733.6"/>
  <unicode hex="0052"/>
  <outline>
    <contour>
      <point x="105.4" y="657.4" type="curve" smooth="yes"/>
      <point x="59.8" y="657.4"/>
      <point x="46.2" y="625.6"/>
      <point x="60.8" y="580.8" type="curve" smooth="yes"/>
      <point x="90.0" y="490.6"/>
      <point x="107.6" y="433.2"/>
      <point x="107.8" y="345.8" type="curve"/>
      <point x="72.8" y="252.8"/>
      <point x="56.8" y="177.4"/>
      <point x="56.8" y="118.0" type="curve" smooth="yes"/>
      <point x="56.8" y="30.6"/>
      <point x="105.8" y="-13.0"/>
      <point x="151.2" y="-13.0" type="curve" smooth="yes"/>
      <point x="183.4" y="-13.0"/>
      <point x="194.6" y="-0.20000000000000018"/>
      <point x="194.6" y="53.6" type="curve" smooth="yes"/>
      <point x="194.6" y="418.6"/>
      <point x="388.2" y="579.0"/>
      <point x="486.8" y="579.0" type="curve" smooth="yes"/>
      <point x="523.8" y="579.0"/>
      <point x="538.0" y="558.6"/>
      <point x="538.0" y="530.8" type="curve" smooth="yes"/>
      <point x="538.0" y="472.8"/>
      <point x="458.6" y="371.4"/>
      <point x="218.8" y="306.2" type="curve" smooth="yes"/>
      <point x="178.2" y="295.0"/>
      <point x="166.4" y="237.8"/>
      <point x="189.4" y="206.8" type="curve" smooth="yes"/>
      <point x="268.4" y="104.8"/>
      <point x="526.6" y="-12.0"/>
      <point x="601.2" y="-12.0" type="curve" smooth="yes"/>
      <point x="660.8" y="-12.0"/>
      <point x="698.0" y="17.4"/>
      <point x="698.0" y="57.4" type="curve" smooth="yes"/>
      <point x="698.0" y="82.0"/>
      <point x="676.0" y="97.8"/>
      <point x="620.0" y="112.8" type="curve" smooth="yes"/>
      <point x="521.2" y="141.8"/>
      <point x="424.0" y="185.8"/>
      <point x="351.4" y="232.6" type="curve"/>
      <point x="572.4" y="306.4"/>
      <point x="670.4" y="420.0"/>
      <point x="670.4" y="536.6" type="curve" smooth="yes"/>
      <point x="670.4" y="633.6"/>
      <point x="619.6" y="710.0"/>
      <point x="497.6" y="710.0" type="curve" smooth="yes"/>
      <point x="377.0" y="710.0"/>
      <point x="266.8" y="636.4"/>
      <point x="197.6" y="495.6" type="curve"/>
      <point x="221.0" y="499.2" type="line"/>
      <point x="202.4" y="616.2"/>
      <point x="167.6" y="657.4"/>
    </contour>
  </outline>
</glyph>
<glyph name="S" format="2">
  <advance width="551.0"/>
  <unicode hex="0053"/>
  <outline>
    <contour>
      <point x="202.00000000002" y="-9.0" type="curve" smooth="yes"/>
      <point x="362.00000000002" y="-9.0"/>
      <point x="515.8" y="36.0"/>
      <point x="515.8" y="145.0" type="curve" smooth="yes"/>
      <point x="515.8" y="288.0"/>
      <point x="170.0" y="343.4"/>
      <point x="170.0" y="445.0" type="curve" smooth="yes"/>
      <point x="170.0" y="487.2"/>
      <point x="280.00000000002" y="557.0"/>
      <point x="459.0" y="596.99999999998" type="curve" smooth="yes"/>
      <point x="491.99999999996" y="603.99999999996"/>
      <point x="503.0" y="620.00000000002"/>
      <point x="503.0" y="652.99999999998" type="curve" smooth="yes"/>
      <point x="503.0" y="682.89024390242"/>
      <point x="483.00000000002" y="710.0"/>
      <point x="442.0" y="710.0" type="curve" smooth="yes"/>
      <point x="318.00000000002" y="710.0"/>
      <point x="47.2" y="589.0"/>
      <point x="47.2" y="449.0" type="curve" smooth="yes"/>
      <point x="47.2" y="255.27731629392"/>
      <point x="363.0" y="210.8"/>
      <point x="380.4" y="147.0" type="curve"/>
      <point x="356.2" y="124.6"/>
      <point x="284.94610778444" y="110.99999999997999"/>
      <point x="193.00000000002" y="110.99999999997999" type="curve" smooth="yes"/>
      <point x="124.00000000002" y="110.99999999997999"/>
      <point x="110.99999999996" y="115.99999999997999"/>
      <point x="78.0" y="115.99999999997999" type="curve" smooth="yes"/>
      <point x="51.0" y="115.99999999997999"/>
      <point x="42.0" y="102.99999999998"/>
      <point x="42.0" y="81.00000000002" type="curve" smooth="yes"/>
      <point x="42.0" y="25.000000000020002"/>
      <point x="94.99999999998" y="-9.0"/>
    </contour>
  </outline>
</glyph>
<glyph name="T" format="2">
  <advance width="647.0"/>
  <unicode hex="0054"/>
  <outline>
    <contour>
      <point x="265.00000000002" y="605.99999999998" type="curve" smooth="yes"/>
      <point x="241.00000000002" y="323.99999999998"/>
      <point x="247.99999999998" y="167.0"/>
      <point x="262.99999999998" y="87.00000000002" type="curve" smooth="yes"/>
      <point x="279.0" y="9.0"/>
      <point x="311.99999999996004" y="-13.0"/>
      <point x="350.0" y="-13.0" type="curve" smooth="yes"/>
      <point x="378.00000000002" y="-13.0"/>
      <point x="394.0" y="-1.00000000002"/>
      <point x="394.0" y="32.99999999998" type="curve" smooth="yes"/>
      <point x="394.0" y="74.0"/>
      <point x="360.00000000002" y="167.0"/>
      <point x="383.0" y="529.0" type="curve" smooth="yes"/>
      <point x="388.0" y="617.0"/>
      <point x="370.99999999998" y="649.99999999998"/>
      <point x="314.0" y="649.99999999998" type="curve" smooth="yes"/>
      <point x="286.00000000002" y="649.99999999998"/>
      <point x="267.00000000002" y="631.99999999998"/>
    </contour>
    <contour>
      <point x="116.0" y="595.0" type="curve" smooth="yes"/>
      <point x="242.00000000002" y="586.99999999998"/>
      <point x="337.0" y="582.99999999998"/>
      <point x="489.0" y="582.99999999998" type="curve" smooth="yes"/>
      <point x="560.00000000004" y="582.99999999998"/>
      <point x="633.0" y="608.0"/>
      <point x="633.0" y="667.0" type="curve" smooth="yes"/>
      <point x="633.0" y="692.99999999998"/>
      <point x="618.00000000002" y="711.0"/>
      <point x="586.0" y="711.0" type="curve" smooth="yes"/>
      <point x="525.0" y="711.0"/>
      <point x="492.99999999998" y="700.0"/>
      <point x="411.00000000002" y="700.0" type="curve" smooth="yes"/>
      <point x="291.00000000002" y="700.0"/>
      <point x="207.00000000002" y="712.0"/>
      <point x="60.00000000002" y="712.0" type="curve" smooth="yes"/>
      <point x="26.99999999998" y="712.0"/>
      <point x="14.0" y="694.0"/>
      <point x="14.0" y="671.99999999998" type="curve" smooth="yes"/>
      <point x="14.0" y="627.99999999998"/>
      <point x="35.0" y="600.0"/>
    </contour>
  </outline>
</glyph>
<glyph name="U" format="2">
  <advance width="666.0"/>
  <unicode hex="0055"/>
  <outline>
    <contour>
      <point x="355.0" y="-13.0" type="curve" smooth="yes"/>
      <point x="529.99999999996" y="-13.0"/>
      <point x="608.99999999998" y="114.0"/>
      <point x="608.99999999998" y="298.0" type="curve" smooth="yes"/>
      <point x="608.99999999998" y="422.0"/>
      <point x="592.99999999998" y="521.0"/>
      <point x="610.99999999998" y="645.0" type="curve" smooth="yes"/>
      <point x="616.99999999998" y="688.00000000002"/>
      <point x="591.99999999998" y="712.0"/>
      <point x="560.0" y="712.0" type="curve" smooth="yes"/>
      <point x="518.99999999998" y="712.0"/>
      <point x="478.00000000002" y="671.00000000002"/>
      <point x="478.00000000002" y="615.0" type="curve" smooth="yes"/>
      <point x="478.00000000002" y="498.0"/>
      <point x="486.00000000002" y="429.0"/>
      <point x="486.00000000002" y="305.0" type="curve" smooth="yes"/>
      <point x="486.00000000002" y="164.00000000002"/>
      <point x="457.00000000002" y="109.0"/>
      <point x="348.0" y="109.0" type="curve" smooth="yes"/>
      <point x="232.00000000002" y="109.0"/>
      <point x="180.0" y="166.00000000002"/>
      <point x="198.0" y="413.0" type="curve" smooth="yes"/>
      <point x="205.99999999998" y="530.0"/>
      <point x="205.99999999998" y="617.00000000002"/>
      <point x="185.0" y="661.00000000002" type="curve" smooth="yes"/>
      <point x="167.00000000002" y="701.00000000002"/>
      <point x="141.0" y="716.0"/>
      <point x="111.99999999998" y="716.0" type="curve"/>
      <point x="86.99999999998" y="716.0"/>
      <point x="56.00000000002" y="703.99999999998"/>
      <point x="56.00000000002" y="670.0" type="curve" smooth="yes"/>
      <point x="56.00000000002" y="600.0"/>
      <point x="85.00000000002" y="596.0"/>
      <point x="72.00000000002001" y="399.0" type="curve" smooth="yes"/>
      <point x="55.999999999959996" y="154.0"/>
      <point x="134.99999999998" y="-13.0"/>
    </contour>
  </outline>
</glyph>
<glyph name="V" format="2">
  <advance width="679.4"/>
  <unicode hex="0056"/>
  <outline>
    <contour>
      <point x="348.0" y="-11.6" type="curve" smooth="yes"/>
      <point x="387.0" y="-11.6"/>
      <point x="403.4" y="9.4"/>
      <point x="418.2" y="61.6" type="curve" smooth="yes"/>
      <point x="475.2" y="255.2"/>
      <point x="536.8" y="374.4"/>
      <point x="634.6" y="538.2" type="curve" smooth="yes"/>
      <point x="661.2" y="582.6"/>
      <point x="667.8" y="597.8"/>
      <point x="667.8" y="637.2" type="curve" smooth="yes"/>
      <point x="667.8" y="678.8"/>
      <point x="645.8" y="712.6"/>
      <point x="608.0" y="712.6" type="curve" smooth="yes"/>
      <point x="582.6" y="712.6"/>
      <point x="565.2" y="706.6"/>
      <point x="521.8" y="639.4" type="curve" smooth="yes"/>
      <point x="427.6" y="492.8"/>
      <point x="357.2" y="333.2"/>
      <point x="307.6" y="142.0" type="curve"/>
      <point x="344.4" y="180.2" type="line"/>
      <point x="264.4" y="300.2"/>
      <point x="247.4" y="529.0"/>
      <point x="160.6" y="652.6" type="curve" smooth="yes"/>
      <point x="131.4" y="695.4"/>
      <point x="107.0" y="709.6"/>
      <point x="76.8" y="709.6" type="curve" smooth="yes"/>
      <point x="35.8" y="709.6"/>
      <point x="17.400000000000002" y="681.4"/>
      <point x="17.400000000000002" y="651.0" type="curve" smooth="yes"/>
      <point x="17.400000000000002" y="616.4"/>
      <point x="36.8" y="589.6"/>
      <point x="62.2" y="551.2" type="curve" smooth="yes"/>
      <point x="129.8" y="450.6"/>
      <point x="126.4" y="277.0"/>
      <point x="240.8" y="76.6" type="curve" smooth="yes"/>
      <point x="280.0" y="7.0"/>
      <point x="302.4" y="-11.6"/>
    </contour>
  </outline>
</glyph>
<glyph name="W" format="2">
  <advance width="938.0"/>
  <unicode hex="0057"/>
  <outline>
    <contour>
      <point x="163.2" y="628.0" type="curve" smooth="yes"/>
      <point x="160.2" y="678.0"/>
      <point x="133.8" y="712.0"/>
      <point x="66.0" y="712.0" type="curve" smooth="yes"/>
      <point x="38.400000000000006" y="712.0"/>
      <point x="24.0" y="688.0"/>
      <point x="26.0" y="663.0" type="curve" smooth="yes"/>
      <point x="40.0" y="468.0"/>
      <point x="96.80000000000001" y="213.6"/>
      <point x="164.2" y="62.2" type="curve" smooth="yes"/>
      <point x="191.0" y="2.0"/>
      <point x="222.4" y="-8.0"/>
      <point x="248.0" y="-8.0" type="curve" smooth="yes"/>
      <point x="273.0" y="-8.0"/>
      <point x="293.6" y="8.0"/>
      <point x="301.2" y="38.4" type="curve" smooth="yes"/>
      <point x="348.4" y="226.2"/>
      <point x="388.8" y="378.8"/>
      <point x="488.6" y="514.4" type="curve" smooth="yes"/>
      <point x="504.2" y="535.0"/>
      <point x="441.0" y="560.4"/>
      <point x="454.0" y="528.8" type="curve" smooth="yes"/>
      <point x="504.4" y="393.6"/>
      <point x="552.4" y="167.8"/>
      <point x="633.6" y="54.0" type="curve" smooth="yes"/>
      <point x="676.6" y="-6.0"/>
      <point x="711.2" y="-12.0"/>
      <point x="732.8" y="-12.0" type="curve" smooth="yes"/>
      <point x="751.2" y="-12.0"/>
      <point x="773.2" y="1.0"/>
      <point x="790.2" y="42.0" type="curve" smooth="yes"/>
      <point x="849.2" y="188.0"/>
      <point x="861.6" y="458.2"/>
      <point x="901.2" y="587.2" type="curve" smooth="yes"/>
      <point x="917.8" y="642.0"/>
      <point x="905.2" y="712.0"/>
      <point x="843.0" y="712.0" type="curve" smooth="yes"/>
      <point x="820.6" y="712.0"/>
      <point x="806.4" y="705.0"/>
      <point x="791.4" y="671.2" type="curve" smooth="yes"/>
      <point x="746.2" y="567.0"/>
      <point x="735.2" y="294.8"/>
      <point x="687.8" y="161.8" type="curve" smooth="yes"/>
      <point x="677.0" y="129.8"/>
      <point x="744.4" y="137.6"/>
      <point x="722.6" y="161.0" type="curve" smooth="yes"/>
      <point x="646.0" y="252.39999999999998"/>
      <point x="617.6" y="409.6"/>
      <point x="595.4" y="517.2" type="curve" smooth="yes"/>
      <point x="572.6" y="622.0"/>
      <point x="539.2" y="652.0"/>
      <point x="482.4" y="652.0" type="curve" smooth="yes"/>
      <point x="440.4" y="652.0"/>
      <point x="403.8" y="621.4"/>
      <point x="377.2" y="581.6" type="curve" smooth="yes"/>
      <point x="313.8" y="490.6"/>
      <point x="261.4" y="355.0"/>
      <point x="214.0" y="183.79999999999998" type="curve" smooth="yes"/>
      <point x="185.4" y="111.6"/>
      <point x="281.8" y="101.8"/>
      <point x="253.8" y="185.79999999999998" type="curve" smooth="yes"/>
      <point x="205.8" y="326.8"/>
      <point x="172.2" y="496.0"/>
    </contour>
  </outline>
</glyph>
<glyph name="X" format="2">
  <advance width="571.0"/>
  <unicode hex="0058"/>
  <outline>
    <contour>
      <point x="101.0" y="669.0" type="curve" smooth="yes"/>
      <point x="170.0" y="454.0"/>
      <point x="454.0" y="242.0"/>
      <point x="524.0" y="132.0" type="curve" smooth="yes"/>
      <point x="569.0" y="61.0"/>
      <point x="538.0" y="-9.0"/>
      <point x="502.0" y="-9.0" type="curve" smooth="yes"/>
      <point x="481.0" y="-9.0"/>
      <point x="459.0" y="3.0"/>
      <point x="437.0" y="44.0" type="curve" smooth="yes"/>
      <point x="361.0" y="192.0"/>
      <point x="75.0" y="412.0"/>
      <point x="18.0" y="572.0" type="curve" smooth="yes"/>
      <point x="-16.0" y="667.0"/>
      <point x="4.0" y="711.0"/>
      <point x="44.0" y="711.0" type="curve" smooth="yes"/>
      <point x="76.0" y="711.0"/>
      <point x="93.0" y="694.0"/>
    </contour>
    <contour>
      <point x="514.0" y="578.0" type="curve" smooth="yes"/>
      <point x="393.0" y="457.0"/>
      <point x="219.0" y="250.0"/>
      <point x="102.0" y="32.0" type="curve" smooth="yes"/>
      <point x="86.0" y="2.0"/>
      <point x="65.0" y="-9.0"/>
      <point x="38.0" y="-9.0" type="curve" smooth="yes"/>
      <point x="-7.0" y="-9.0"/>
      <point x="-13.0" y="52.0"/>
      <point x="26.0" y="131.0" type="curve" smooth="yes"/>
      <point x="122.0" y="325.0"/>
      <point x="319.0" y="567.0"/>
      <point x="459.0" y="693.0" type="curve" smooth="yes"/>
      <point x="470.0" y="703.0"/>
      <point x="485.0" y="708.0"/>
      <point x="499.0" y="708.0" type="curve" smooth="yes"/>
      <point x="537.0" y="708.0"/>
      <point x="571.0" y="635.0"/>
    </contour>
  </outline>
</glyph>
<glyph name="Y" format="2">
  <advance width="622.0"/>
  <unicode hex="0059"/>
  <outline>
    <contour>
      <point x="557.6" y="566.0" type="curve" smooth="yes"/>
      <point x="428.4" y="450.8"/>
      <point x="322.4" y="233.4"/>
      <point x="282.4" y="37.2" type="curve" smooth="yes"/>
      <point x="274.6" y="-0.8"/>
      <point x="256.6" y="-14.0"/>
      <point x="222.0" y="-14.0" type="curve" smooth="yes"/>
      <point x="175.6" y="-14.0"/>
      <point x="152.8" y="29.599999999999998"/>
      <point x="168.6" y="105.0" type="curve" smooth="yes"/>
      <point x="203.2" y="280.8"/>
      <point x="324.8" y="536.6"/>
      <point x="487.8" y="683.6" type="curve" smooth="yes"/>
      <point x="515.0" y="708.0"/>
      <point x="530.0" y="713.0"/>
      <point x="545.0" y="713.0" type="curve" smooth="yes"/>
      <point x="574.8" y="713.0"/>
      <point x="597.4" y="684.0"/>
      <point x="597.4" y="645.8" type="curve" smooth="yes"/>
      <point x="597.4" y="615.8"/>
      <point x="591.0" y="596.8"/>
    </contour>
    <contour>
      <point x="136.2" y="666.4" type="curve" smooth="yes"/>
      <point x="209.2" y="535.2"/>
      <point x="250.0" y="520.4"/>
      <point x="328.8" y="368.6" type="curve" smooth="yes"/>
      <point x="346.8" y="332.6"/>
      <point x="333.0" y="268.8"/>
      <point x="289.6" y="268.8" type="curve" smooth="yes"/>
      <point x="266.8" y="268.8"/>
      <point x="250.0" y="280.2"/>
      <point x="238.8" y="299.6" type="curve" smooth="yes"/>
      <point x="148.52649339828" y="449.57069387603997"/>
      <point x="108.6" y="469.8"/>
      <point x="46.2" y="562.4" type="curve" smooth="yes"/>
      <point x="25.4" y="594.8"/>
      <point x="16.6" y="615.8"/>
      <point x="16.6" y="648.0" type="curve" smooth="yes"/>
      <point x="16.6" y="685.4"/>
      <point x="38.4" y="710.8"/>
      <point x="67.4" y="710.8" type="curve" smooth="yes"/>
      <point x="96.0" y="710.8"/>
      <point x="116.0" y="702.0"/>
    </contour>
  </outline>
</glyph>
<glyph name="Z" format="2">
  <advance width="663.0"/>
  <unicode hex="005A"/>
  <outline>
    <contour>
      <point x="101.0" y="680.2" type="curve" smooth="yes"/>
      <point x="186.2" y="700.0"/>
      <point x="268.8" y="710.0"/>
      <point x="350.0" y="710.0" type="curve" smooth="yes"/>
      <point x="548.8" y="710.0"/>
      <point x="598.0" y="637.6"/>
      <point x="598.0" y="558.2" type="curve" smooth="yes"/>
      <point x="598.0" y="464.0"/>
      <point x="570.0" y="421.4"/>
      <point x="369.8" y="299.8" type="curve" smooth="yes"/>
      <point x="189.39999999999998" y="189.2"/>
      <point x="186.8" y="165.6"/>
      <point x="179.8" y="99.19999999999999" type="curve" smooth="yes"/>
      <point x="172.6" y="70.8"/>
      <point x="111.8" y="145.2"/>
      <point x="146.2" y="130.2" type="curve" smooth="yes"/>
      <point x="170.2" y="119.6"/>
      <point x="193.8" y="116.19999999999999"/>
      <point x="225.8" y="116.19999999999999" type="curve" smooth="yes"/>
      <point x="294.8" y="116.19999999999999"/>
      <point x="374.4" y="130.8"/>
      <point x="459.0" y="130.8" type="curve" smooth="yes"/>
      <point x="565.6" y="130.8"/>
      <point x="638.0" y="109.19999999999999"/>
      <point x="638.0" y="39.4" type="curve" smooth="yes"/>
      <point x="638.0" y="10.4"/>
      <point x="617.0" y="-7.0"/>
      <point x="584.4" y="-7.0" type="curve" smooth="yes"/>
      <point x="540.2" y="-7.0"/>
      <point x="515.6" y="0.0"/>
      <point x="443.0" y="0.0" type="curve" smooth="yes"/>
      <point x="360.0" y="0.0"/>
      <point x="282.0" y="-9.4"/>
      <point x="215.0" y="-9.4" type="curve" smooth="yes"/>
      <point x="93.0" y="-9.4"/>
      <point x="50.2" y="49.6"/>
      <point x="50.2" y="122.6" type="curve" smooth="yes"/>
      <point x="50.2" y="199.4"/>
      <point x="76.0" y="271.8"/>
      <point x="293.8" y="402.6" type="curve" smooth="yes"/>
      <point x="455.4" y="500.4"/>
      <point x="466.8" y="528.8"/>
      <point x="467.8" y="576.0" type="curve" smooth="yes"/>
      <point x="470.6" y="617.6"/>
      <point x="517.2" y="536.0"/>
      <point x="484.8" y="558.2" type="curve" smooth="yes"/>
      <point x="462.4" y="573.0"/>
      <point x="443.6" y="579.4"/>
      <point x="378.6" y="579.4" type="curve" smooth="yes"/>
      <point x="263.0" y="579.4"/>
      <point x="195.0" y="554.2"/>
      <point x="149.0" y="554.2" type="curve" smooth="yes"/>
      <point x="107.6" y="554.2"/>
      <point x="55.0" y="576.0"/>
      <point x="55.0" y="626.6" type="curve" smooth="yes"/>
      <point x="55.0" y="650.8"/>
      <point x="69.0" y="672.2"/>
    </contour>
  </outline>
</glyph>
<glyph name="a" format="2">
  <advance width="680.0"/>
  <unicode hex="0061"/>
  <outline>
    <contour>
      <point x="380.8" y="394.0" type="curve" smooth="yes"/>
      <point x="385.4" y="423.6"/>
      <point x="410.2" y="441.2"/>
      <point x="436.0" y="441.2" type="curve" smooth="yes"/>
      <point x="480.48571428572" y="441.2"/>
      <point x="514.6" y="411.0"/>
      <point x="526.0" y="370.4" type="curve" smooth="yes"/>
      <point x="554.8" y="263.8"/>
      <point x="570.0" y="193.0"/>
      <point x="641.8" y="108.6" type="curve" smooth="yes"/>
      <point x="672.4" y="74.19999999999999"/>
      <point x="644.4" y="-7.0"/>
      <point x="589.2" y="-7.0" type="curve" smooth="yes"/>
      <point x="567.0" y="-7.0"/>
      <point x="554.2671778133999" y="2.72060803872"/>
      <point x="543.8" y="15.2" type="curve" smooth="yes"/>
      <point x="486.87059595592" y="85.46175505508"/>
      <point x="452.0" y="149.0"/>
      <point x="427.0" y="298.2" type="curve"/>
      <point x="474.6" y="301.4" type="line"/>
      <point x="426.98998003796" y="67.90360105496"/>
      <point x="307.8373540856" y="-10.0"/>
      <point x="198.2" y="-10.0" type="curve" smooth="yes"/>
      <point x="106.2" y="-10.0"/>
      <point x="45.0" y="53.8"/>
      <point x="45.0" y="151.0" type="curve" smooth="yes"/>
      <point x="45.0" y="318.95677233428"/>
      <point x="190.71788079472" y="513.2"/>
      <point x="349.0" y="513.2" type="curve" smooth="yes"/>
      <point x="392.2" y="513.2"/>
      <point x="425.8" y="485.6"/>
      <point x="425.8" y="436.0" type="curve" smooth="yes"/>
      <point x="425.8" y="416.2"/>
      <point x="413.2" y="404.2"/>
      <point x="394.6" y="401.0" type="curve" smooth="yes"/>
      <point x="264.21446471616" y="378.76382345036"/>
      <point x="173.6" y="260.6028169014"/>
      <point x="173.6" y="141.4" type="curve" smooth="yes"/>
      <point x="173.6" y="112.8"/>
      <point x="176.4" y="93.8"/>
      <point x="191.4" y="58.2" type="curve"/>
      <point x="127.8" y="143.39999999999998" type="line"/>
      <point x="156.8" y="124.4"/>
      <point x="174.0" y="117.19999999999999"/>
      <point x="200.8" y="117.19999999999999" type="curve" smooth="yes"/>
      <point x="280.0" y="117.19999999999999"/>
      <point x="352.6" y="212.8"/>
    </contour>
  </outline>
</glyph>
<glyph name="b" format="2">
  <advance width="611.0"/>
  <unicode hex="0062"/>
  <outline>
    <contour>
      <point x="202.0" y="713.0" type="curve" smooth="yes"/>
      <point x="202.0" y="644.2024691358"/>
      <point x="185.4" y="571.09846153848"/>
      <point x="185.4" y="443.2" type="curve" smooth="yes"/>
      <point x="185.4" y="390.40689655172"/>
      <point x="185.50470177604" y="345.17555521252"/>
      <point x="191.8" y="282.0" type="curve" smooth="yes"/>
      <point x="195.40088357984" y="242.78350650964"/>
      <point x="146.8" y="272.2"/>
      <point x="160.8" y="319.0" type="curve" smooth="yes"/>
      <point x="192.0" y="437.4"/>
      <point x="284.56102564104003" y="513.4"/>
      <point x="376.8" y="513.4" type="curve" smooth="yes"/>
      <point x="484.23232323232" y="513.4"/>
      <point x="569.0" y="449.00808080807997"/>
      <point x="569.0" y="297.0" type="curve" smooth="yes"/>
      <point x="569.0" y="112.31803278688"/>
      <point x="391.66727828748003" y="-10.0"/>
      <point x="208.0" y="-10.0" type="curve" smooth="yes"/>
      <point x="137.4" y="-10.0"/>
      <point x="54.8" y="13.6"/>
      <point x="54.8" y="79.4" type="curve" smooth="yes"/>
      <point x="54.8" y="113.33333333331998"/>
      <point x="79.2" y="129.4"/>
      <point x="114.8" y="129.4" type="curve" smooth="yes"/>
      <point x="136.6" y="129.4"/>
      <point x="167.2" y="119.8"/>
      <point x="196.0" y="119.8" type="curve" smooth="yes"/>
      <point x="306.43529411764" y="119.8"/>
      <point x="436.0" y="178.6184738956"/>
      <point x="436.0" y="306.0" type="curve" smooth="yes"/>
      <point x="436.0" y="348.2487804878"/>
      <point x="422.49253731344" y="382.6"/>
      <point x="375.0" y="382.6" type="curve" smooth="yes"/>
      <point x="280.0" y="382.6"/>
      <point x="220.25682537048" y="276.48743612303997"/>
      <point x="191.0" y="126.0" type="curve" smooth="yes"/>
      <point x="185.4" y="99.4"/>
      <point x="171.2" y="85.6"/>
      <point x="149.4" y="85.6" type="curve" smooth="yes"/>
      <point x="121.0" y="85.6"/>
      <point x="95.2" y="112.6"/>
      <point x="87.0" y="158.0" type="curve" smooth="yes"/>
      <point x="68.33468764512" y="263.08016366416"/>
      <point x="58.0" y="376.30370370372"/>
      <point x="58.0" y="440.0" type="curve" smooth="yes"/>
      <point x="58.0" y="606.28742514972"/>
      <point x="81.68526412183999" y="672.39077862932"/>
      <point x="74.0" y="757.8" type="curve" smooth="yes"/>
      <point x="71.41990635548" y="786.3909832676"/>
      <point x="84.0" y="810.2"/>
      <point x="112.8" y="810.2" type="curve" smooth="yes"/>
      <point x="157.59512195119999" y="810.2"/>
      <point x="202.0" y="775.54328358208"/>
    </contour>
  </outline>
</glyph>
<glyph name="c" format="2">
  <advance width="524.0"/>
  <unicode hex="0063"/>
  <outline>
    <contour>
      <point x="474.0" y="126.4" type="curve" smooth="yes"/>
      <point x="474.0" y="170.0"/>
      <point x="461.0" y="186.4"/>
      <point x="433.8" y="186.4" type="curve" smooth="yes"/>
      <point x="389.4" y="186.4"/>
      <point x="397.2" y="122.0"/>
      <point x="278.6" y="122.0" type="curve" smooth="yes"/>
      <point x="200.6" y="122.0"/>
      <point x="168.4" y="159.59797979796"/>
      <point x="168.4" y="214.0" type="curve" smooth="yes"/>
      <point x="168.4" y="299.30909090908"/>
      <point x="244.6" y="382.6"/>
      <point x="349.0" y="382.6" type="curve" smooth="yes"/>
      <point x="378.6" y="382.6"/>
      <point x="379.6" y="360.0"/>
      <point x="400.6" y="360.0" type="curve" smooth="yes"/>
      <point x="435.0487804878" y="360.0"/>
      <point x="453.0" y="391.66315789472003"/>
      <point x="453.0" y="432.0" type="curve" smooth="yes"/>
      <point x="453.0" y="498.2"/>
      <point x="406.0" y="513.0"/>
      <point x="359.0" y="513.0" type="curve" smooth="yes"/>
      <point x="185.8" y="513.0"/>
      <point x="38.0" y="383.6"/>
      <point x="38.0" y="220.0" type="curve" smooth="yes"/>
      <point x="38.0" y="85.2"/>
      <point x="129.8" y="-9.0"/>
      <point x="284.0" y="-9.0" type="curve" smooth="yes"/>
      <point x="394.2" y="-9.0"/>
      <point x="474.0" y="42.6"/>
    </contour>
  </outline>
</glyph>
<glyph name="d" format="2">
  <advance width="613.0"/>
  <unicode hex="0064"/>
  <outline>
    <contour>
      <point x="253.0" y="-9.0" type="curve" smooth="yes"/>
      <point x="333.0" y="-9.0"/>
      <point x="432.0" y="52.0"/>
      <point x="466.0" y="220.0" type="curve"/>
      <point x="413.0" y="235.0" type="line"/>
      <point x="403.0" y="105.0"/>
      <point x="465.0" y="-14.0"/>
      <point x="537.0" y="-14.0" type="curve" smooth="yes"/>
      <point x="575.0" y="-14.0"/>
      <point x="601.0" y="18.0"/>
      <point x="601.0" y="46.0" type="curve" smooth="yes"/>
      <point x="601.0" y="90.0"/>
      <point x="522.0" y="92.0"/>
      <point x="522.0" y="301.0" type="curve" smooth="yes"/>
      <point x="522.0" y="440.0"/>
      <point x="547.0" y="529.0"/>
      <point x="552.0" y="690.0" type="curve" smooth="yes"/>
      <point x="555.0" y="768.0"/>
      <point x="527.0" y="810.0"/>
      <point x="472.0" y="810.0" type="curve" smooth="yes"/>
      <point x="447.0" y="810.0"/>
      <point x="428.0" y="796.0"/>
      <point x="428.0" y="749.0" type="curve" smooth="yes"/>
      <point x="428.0" y="338.0"/>
      <point x="351.0" y="109.0"/>
      <point x="247.0" y="109.0" type="curve" smooth="yes"/>
      <point x="196.0" y="109.0"/>
      <point x="140.0" y="190.0"/>
      <point x="140.0" y="279.0" type="curve" smooth="yes"/>
      <point x="140.0" y="349.0"/>
      <point x="190.0" y="391.0"/>
      <point x="275.0" y="391.0" type="curve" smooth="yes"/>
      <point x="334.0" y="391.0"/>
      <point x="363.0" y="364.0"/>
      <point x="396.0" y="364.0" type="curve" smooth="yes"/>
      <point x="410.0" y="364.0"/>
      <point x="421.0" y="381.0"/>
      <point x="421.0" y="406.0" type="curve" smooth="yes"/>
      <point x="421.0" y="470.0"/>
      <point x="356.0" y="511.0"/>
      <point x="252.0" y="511.0" type="curve" smooth="yes"/>
      <point x="113.0" y="512.0"/>
      <point x="20.0" y="419.0"/>
      <point x="20.0" y="279.0" type="curve" smooth="yes"/>
      <point x="20.0" y="124.0"/>
      <point x="116.0" y="-9.0"/>
    </contour>
  </outline>
</glyph>
<glyph name="e" format="2">
  <advance width="585.0"/>
  <unicode hex="0065"/>
  <outline>
    <contour>
      <point x="237.0" y="182.0" type="curve" smooth="yes"/>
      <point x="379.4" y="182.0"/>
      <point x="494.0" y="236.8"/>
      <point x="494.0" y="349.0" type="curve" smooth="yes"/>
      <point x="494.0" y="456.0"/>
      <point x="420.72485549132" y="513.0"/>
      <point x="315.0" y="513.0" type="curve" smooth="yes"/>
      <point x="142.54838709676" y="513.0"/>
      <point x="33.0" y="351.4"/>
      <point x="33.0" y="210.0" type="curve" smooth="yes"/>
      <point x="33.0" y="82.0"/>
      <point x="105.8" y="-10.0"/>
      <point x="273.0" y="-10.0" type="curve" smooth="yes"/>
      <point x="423.99152542372" y="-10.0"/>
      <point x="535.8" y="67.8"/>
      <point x="535.8" y="132.6" type="curve" smooth="yes"/>
      <point x="535.8" y="162.2"/>
      <point x="525.8" y="176.6"/>
      <point x="502.4" y="176.6" type="curve" smooth="yes"/>
      <point x="455.8" y="176.6"/>
      <point x="414.0" y="109.6"/>
      <point x="261.6" y="109.6" type="curve" smooth="yes"/>
      <point x="187.18235294116" y="109.6"/>
      <point x="161.2" y="143.2"/>
      <point x="161.2" y="192.6" type="curve" smooth="yes"/>
      <point x="161.2" y="290.6"/>
      <point x="231.26315789472" y="384.6"/>
      <point x="328.2" y="384.6" type="curve" smooth="yes"/>
      <point x="359.97721518988" y="384.6"/>
      <point x="372.6" y="370.6"/>
      <point x="372.6" y="344.0" type="curve" smooth="yes"/>
      <point x="372.6" y="297.0"/>
      <point x="303.32356020944" y="265.0"/>
      <point x="224.0" y="265.0" type="curve" smooth="yes"/>
      <point x="192.0" y="265.0"/>
      <point x="173.6" y="271.2"/>
      <point x="159.2" y="271.2" type="curve" smooth="yes"/>
      <point x="139.0" y="271.2"/>
      <point x="131.2" y="262.4"/>
      <point x="131.2" y="244.4" type="curve" smooth="yes"/>
      <point x="131.2" y="212.2"/>
      <point x="166.6" y="182.0"/>
    </contour>
  </outline>
</glyph>
<glyph name="f" format="2">
  <advance width="420.0"/>
  <unicode hex="0066"/>
  <outline>
    <contour>
      <point x="334.0" y="393.6" type="curve" smooth="yes"/>
      <point x="363.47777777776" y="395.4"/>
      <point x="377.0" y="414.73333333332"/>
      <point x="377.0" y="438.0" type="curve" smooth="yes"/>
      <point x="377.0" y="481.22790697676"/>
      <point x="338.5" y="508.0"/>
      <point x="301.8" y="508.0" type="curve" smooth="yes"/>
      <point x="244.2" y="508.0"/>
      <point x="200.4" y="502.0"/>
      <point x="142.0" y="485.2" type="curve" smooth="yes"/>
      <point x="101.4" y="472.6"/>
      <point x="81.2" y="439.6"/>
      <point x="81.2" y="402.2" type="curve" smooth="yes"/>
      <point x="81.2" y="373.7391304348"/>
      <point x="108.4" y="354.8"/>
      <point x="139.4" y="354.8" type="curve" smooth="yes"/>
      <point x="172.65022421524" y="354.8"/>
      <point x="203.70941704036" y="387.0"/>
    </contour>
    <contour>
      <point x="170.0" y="-169.0" type="curve" smooth="yes"/>
      <point x="206.15319148935998" y="-169.0"/>
      <point x="223.4" y="-151.0"/>
      <point x="223.4" y="-83.80000000000001" type="curve" smooth="yes"/>
      <point x="223.4" y="161.92256880732"/>
      <point x="176.2" y="298.86128440368"/>
      <point x="176.2" y="442.4" type="curve" smooth="yes"/>
      <point x="176.2" y="589.2"/>
      <point x="197.0" y="650.8"/>
      <point x="337.2" y="693.6" type="curve" smooth="yes"/>
      <point x="364.8" y="702.6"/>
      <point x="379.0" y="720.04705882352"/>
      <point x="379.0" y="747.0" type="curve" smooth="yes"/>
      <point x="379.0" y="792.0"/>
      <point x="342.6" y="810.0"/>
      <point x="306.8" y="810.0" type="curve" smooth="yes"/>
      <point x="170.8" y="810.0"/>
      <point x="46.8" y="684.0"/>
      <point x="46.8" y="480.0" type="curve" smooth="yes"/>
      <point x="46.8" y="270.38669001752"/>
      <point x="91.0" y="187.8605954466"/>
      <point x="91.0" y="-52.400000000000006" type="curve" smooth="yes"/>
      <point x="91.0" y="-127.31954022988"/>
      <point x="130.36226415096" y="-169.0"/>
    </contour>
  </outline>
</glyph>
<glyph name="g" format="2">
  <advance width="636.0"/>
  <unicode hex="0067"/>
  <outline>
    <contour>
      <point x="454.6" y="465.4" type="curve" smooth="yes"/>
      <point x="507.62025316456" y="465.4"/>
      <point x="534.8022888618" y="426.17100775072"/>
      <point x="537.8" y="387.0" type="curve" smooth="yes"/>
      <point x="551.2" y="225.8"/>
      <point x="599.0" y="154.0"/>
      <point x="599.0" y="-37.400000000000006" type="curve" smooth="yes"/>
      <point x="599.0" y="-175.6"/>
      <point x="523.55789473684" y="-260.0"/>
      <point x="391.0" y="-260.0" type="curve" smooth="yes"/>
      <point x="164.25379310344" y="-260.0"/>
      <point x="109.6" y="-164.648"/>
      <point x="109.6" y="-97.4" type="curve" smooth="yes"/>
      <point x="109.6" y="-53.8"/>
      <point x="140.8" y="-19.0"/>
      <point x="189.2" y="-19.0" type="curve" smooth="yes"/>
      <point x="212.0" y="-19.0"/>
      <point x="220.0" y="-30.0"/>
      <point x="220.0" y="-51.0" type="curve" smooth="yes"/>
      <point x="220.0" y="-97.4"/>
      <point x="270.3254237288" y="-130.4"/>
      <point x="381.0" y="-130.4" type="curve" smooth="yes"/>
      <point x="447.4" y="-130.4"/>
      <point x="468.4" y="-94.67741935484"/>
      <point x="468.4" y="-28.8" type="curve" smooth="yes"/>
      <point x="468.4" y="92.53122807016001"/>
      <point x="432.6" y="151.0"/>
      <point x="420.6" y="258.4" type="curve"/>
      <point x="471.8" y="249.8" type="line"/>
      <point x="440.260269503" y="110.94503474780001"/>
      <point x="335.47817258884" y="61.0"/>
      <point x="242.0" y="61.0" type="curve" smooth="yes"/>
      <point x="115.65685279188" y="61.0"/>
      <point x="37.0" y="129.95051546392"/>
      <point x="37.0" y="252.0" type="curve" smooth="yes"/>
      <point x="37.0" y="397.5894736842"/>
      <point x="159.8" y="515.6"/>
      <point x="296.0" y="515.6" type="curve" smooth="yes"/>
      <point x="401.8" y="515.6"/>
      <point x="438.2" y="453.69391304348"/>
      <point x="438.2" y="395.8" type="curve" smooth="yes"/>
      <point x="438.2" y="367.2"/>
      <point x="421.8" y="344.4"/>
      <point x="406.4" y="344.4" type="curve" smooth="yes"/>
      <point x="369.3448275862" y="344.4"/>
      <point x="363.2" y="390.8"/>
      <point x="315.4" y="390.8" type="curve" smooth="yes"/>
      <point x="242.2" y="390.8"/>
      <point x="167.6" y="323.56438356164"/>
      <point x="167.6" y="258.4" type="curve" smooth="yes"/>
      <point x="167.6" y="215.44516129032002"/>
      <point x="190.8" y="192.0"/>
      <point x="242.2" y="192.0" type="curve" smooth="yes"/>
      <point x="338.0" y="192.0"/>
      <point x="413.8" y="259.8"/>
      <point x="413.8" y="412.0" type="curve" smooth="yes"/>
      <point x="413.8" y="449.2"/>
      <point x="423.6" y="465.4"/>
    </contour>
  </outline>
</glyph>
<glyph name="h" format="2">
  <advance width="661.0"/>
  <unicode hex="0068"/>
  <outline>
    <contour>
      <point x="563.8" y="-11.2" type="curve" smooth="yes"/>
      <point x="597.34545454544" y="-11.2"/>
      <point x="623.2" y="9.899999999999999"/>
      <point x="623.2" y="36.8" type="curve" smooth="yes"/>
      <point x="623.2" y="51.13846153848"/>
      <point x="618.2618644598" y="64.4762710804"/>
      <point x="612.0" y="77.0" type="curve" smooth="yes"/>
      <point x="593.3340497608" y="110.27591095436"/>
      <point x="567.87969956864" y="146.84310445732"/>
      <point x="556.0" y="268.0" type="curve" smooth="yes"/>
      <point x="541.83881266248" y="424.37306071256"/>
      <point x="515.8" y="516.8"/>
      <point x="413.0" y="516.8" type="curve" smooth="yes"/>
      <point x="330.0" y="516.8"/>
      <point x="252.6" y="432.2"/>
      <point x="167.2" y="221.39999999999998" type="curve"/>
      <point x="196.0" y="176.8" type="line"/>
      <point x="194.4" y="386.2"/>
      <point x="232.0" y="524.0"/>
      <point x="232.0" y="634.2" type="curve" smooth="yes"/>
      <point x="232.0" y="768.4"/>
      <point x="186.775" y="810.0"/>
      <point x="141.6" y="810.0" type="curve" smooth="yes"/>
      <point x="101.28" y="810.0"/>
      <point x="87.0" y="785.4"/>
      <point x="87.0" y="759.8" type="curve" smooth="yes"/>
      <point x="87.0" y="718.8"/>
      <point x="100.4" y="681.6"/>
      <point x="100.4" y="613.0" type="curve" smooth="yes"/>
      <point x="100.4" y="491.0"/>
      <point x="63.0" y="340.8"/>
      <point x="63.0" y="119.0" type="curve" smooth="yes"/>
      <point x="63.0" y="44.0"/>
      <point x="100.4153846154" y="-10.0"/>
      <point x="147.0" y="-10.0" type="curve" smooth="yes"/>
      <point x="172.8" y="-10.0"/>
      <point x="191.8" y="-0.20000000000000018"/>
      <point x="206.8" y="36.4" type="curve" smooth="yes"/>
      <point x="281.6" y="237.6"/>
      <point x="364.6" y="356.4"/>
      <point x="404.8" y="364.2" type="curve"/>
      <point x="419.0" y="330.2"/>
      <point x="426.4" y="286.6"/>
      <point x="433.6" y="173.4" type="curve" smooth="yes"/>
      <point x="440.38596646244" y="75.19997791004"/>
      <point x="489.03294117648" y="-11.2"/>
    </contour>
  </outline>
</glyph>
<glyph name="i" format="2">
  <advance width="276.0"/>
  <unicode hex="0069"/>
  <outline>
    <contour>
      <point x="154.0" y="-7.0" type="curve" smooth="yes"/>
      <point x="183.0" y="-7.0"/>
      <point x="198.0" y="12.0"/>
      <point x="198.0" y="43.0" type="curve" smooth="yes"/>
      <point x="198.0" y="122.0"/>
      <point x="208.9999540519" y="372.0033542142"/>
      <point x="208.0" y="445.0" type="curve" smooth="yes"/>
      <point x="207.0000200325" y="497.9989382787"/>
      <point x="177.8550724638" y="526.0"/>
      <point x="143.0" y="526.0" type="curve" smooth="yes"/>
      <point x="105.0512820513" y="526.0"/>
      <point x="69.0" y="485.0"/>
      <point x="69.0" y="436.0" type="curve" smooth="yes"/>
      <point x="69.0" y="336.0"/>
      <point x="75.0" y="277.0"/>
      <point x="75.0" y="79.0" type="curve" smooth="yes"/>
      <point x="75.0" y="34.0"/>
      <point x="110.0" y="-7.0"/>
    </contour>
    <contour>
      <point x="159.0" y="622.0" type="curve" smooth="yes"/>
      <point x="204.0" y="622.0"/>
      <point x="221.0" y="645.0"/>
      <point x="221.0" y="665.0" type="curve" smooth="yes"/>
      <point x="221.0" y="731.0"/>
      <point x="182.0" y="813.0"/>
      <point x="117.0" y="813.0" type="curve" smooth="yes"/>
      <point x="80.0" y="813.0"/>
      <point x="50.0" y="783.0"/>
      <point x="50.0" y="743.0" type="curve" smooth="yes"/>
      <point x="50.0" y="681.0"/>
      <point x="100.0" y="622.0"/>
    </contour>
  </outline>
</glyph>
<glyph name="j" format="2">
  <advance width="303.4"/>
  <unicode hex="006A"/>
  <outline>
    <contour>
      <point x="179.0" y="456.4" type="curve" smooth="yes"/>
      <point x="215.8" y="276.6"/>
      <point x="239.4" y="121.4"/>
      <point x="239.4" y="-40.0" type="curve" smooth="yes"/>
      <point x="239.4" y="-185.0"/>
      <point x="159.6" y="-260.0"/>
      <point x="38.4" y="-260.0" type="curve" smooth="yes"/>
      <point x="-54.8" y="-260.0"/>
      <point x="-108.0" y="-213.6"/>
      <point x="-108.0" y="-157.4" type="curve" smooth="yes"/>
      <point x="-108.0" y="-126.0"/>
      <point x="-91.2" y="-108.4"/>
      <point x="-66.6" y="-108.4" type="curve" smooth="yes"/>
      <point x="-31.6" y="-108.4"/>
      <point x="-13.200000000000003" y="-130.4"/>
      <point x="29.4" y="-130.4" type="curve" smooth="yes"/>
      <point x="81.2" y="-130.4"/>
      <point x="110.6" y="-96.6"/>
      <point x="110.6" y="-36.4" type="curve" smooth="yes"/>
      <point x="110.6" y="228.8"/>
      <point x="48.4" y="310.4"/>
      <point x="48.4" y="422.8" type="curve" smooth="yes"/>
      <point x="48.4" y="487.6"/>
      <point x="81.6" y="512.8"/>
      <point x="115.8" y="512.8" type="curve" smooth="yes"/>
      <point x="147.0" y="512.8"/>
      <point x="169.0" y="501.8"/>
    </contour>
    <contour>
      <point x="146.8" y="630.2" type="curve" smooth="yes"/>
      <point x="197.2" y="630.2"/>
      <point x="216.4" y="671.0"/>
      <point x="216.4" y="707.0" type="curve" smooth="yes"/>
      <point x="216.4" y="753.0"/>
      <point x="183.2" y="810.6"/>
      <point x="126.2" y="810.6" type="curve" smooth="yes"/>
      <point x="80.0" y="810.6"/>
      <point x="43.4" y="773.8"/>
      <point x="43.4" y="723.6" type="curve" smooth="yes"/>
      <point x="43.4" y="675.8"/>
      <point x="90.2" y="630.2"/>
    </contour>
  </outline>
</glyph>
<glyph name="k" format="2">
  <advance width="630.0"/>
  <unicode hex="006B"/>
  <outline>
    <contour>
      <point x="521.4" y="-7.0" type="curve" smooth="yes"/>
      <point x="557.6" y="-7.0"/>
      <point x="576.6" y="13.799999999999999"/>
      <point x="576.6" y="46.599999999999994" type="curve" smooth="yes"/>
      <point x="576.6" y="82.8"/>
      <point x="557.0" y="119.6"/>
      <point x="495.0" y="135.2" type="curve" smooth="yes"/>
      <point x="365.08331455452003" y="170.84490652355998"/>
      <point x="313.4" y="217.8"/>
      <point x="313.4" y="241.0" type="curve" smooth="yes"/>
      <point x="313.4" y="272.22686567164"/>
      <point x="398.29863372744" y="346.606504877"/>
      <point x="504.6" y="382.6" type="curve" smooth="yes"/>
      <point x="555.6" y="399.0"/>
      <point x="571.4" y="416.4"/>
      <point x="571.4" y="446.4" type="curve" smooth="yes"/>
      <point x="571.4" y="490.2"/>
      <point x="543.68888888888" y="514.2"/>
      <point x="500.2" y="514.2" type="curve" smooth="yes"/>
      <point x="402.8" y="514.2"/>
      <point x="172.0" y="357.6"/>
      <point x="172.0" y="229.0" type="curve" smooth="yes"/>
      <point x="172.0" y="130.0"/>
      <point x="397.6" y="-7.0"/>
    </contour>
    <contour>
      <point x="128.2" y="810.0" type="curve" smooth="yes"/>
      <point x="93.6" y="810.0"/>
      <point x="77.4" y="791.2"/>
      <point x="77.4" y="757.0" type="curve" smooth="yes"/>
      <point x="77.4" y="717.2"/>
      <point x="90.8" y="696.0"/>
      <point x="90.8" y="592.8" type="curve" smooth="yes"/>
      <point x="90.8" y="404.6"/>
      <point x="63.0" y="217.3426229508"/>
      <point x="63.0" y="129.0" type="curve" smooth="yes"/>
      <point x="63.0" y="17.4"/>
      <point x="105.8" y="-10.0"/>
      <point x="148.0" y="-10.0" type="curve" smooth="yes"/>
      <point x="179.64444444444" y="-10.0"/>
      <point x="197.0" y="5.8"/>
      <point x="197.0" y="41.8" type="curve" smooth="yes"/>
      <point x="197.0" y="84.4"/>
      <point x="192.0" y="121.63999999999999"/>
      <point x="192.0" y="177.0" type="curve" smooth="yes"/>
      <point x="192.0" y="302.5962529274"/>
      <point x="225.0" y="398.8"/>
      <point x="225.0" y="596.0" type="curve" smooth="yes"/>
      <point x="225.0" y="758.0"/>
      <point x="189.4" y="810.0"/>
    </contour>
  </outline>
</glyph>
<glyph name="l" format="2">
  <advance width="372.6"/>
  <unicode hex="006C"/>
  <outline>
    <contour>
      <point x="213.4" y="705.4" type="curve" smooth="yes"/>
      <point x="213.4" y="626.4"/>
      <point x="189.0" y="535.2"/>
      <point x="189.0" y="347.0" type="curve" smooth="yes"/>
      <point x="189.0" y="152.4"/>
      <point x="212.2" y="120.8"/>
      <point x="241.0" y="120.8" type="curve" smooth="yes"/>
      <point x="276.2" y="120.8"/>
      <point x="293.975" y="145.2"/>
      <point x="316.8" y="145.2" type="curve" smooth="yes"/>
      <point x="345.3" y="145.2"/>
      <point x="354.6" y="122.34909090907999"/>
      <point x="354.6" y="91.0" type="curve" smooth="yes"/>
      <point x="354.6" y="27.975"/>
      <point x="297.2" y="-11.0"/>
      <point x="216.6" y="-11.0" type="curve" smooth="yes"/>
      <point x="148.4" y="-11.0"/>
      <point x="55.6" y="30.8"/>
      <point x="55.6" y="367.0" type="curve" smooth="yes"/>
      <point x="55.6" y="524.2"/>
      <point x="67.17280338784" y="633.59796802404"/>
      <point x="85.4" y="744.4" type="curve" smooth="yes"/>
      <point x="93.4" y="791.8"/>
      <point x="111.2" y="810.0"/>
      <point x="143.0" y="810.0" type="curve" smooth="yes"/>
      <point x="187.4" y="810.0"/>
      <point x="213.4" y="779.6"/>
    </contour>
  </outline>
</glyph>
<glyph name="m" format="2">
  <advance width="933.0"/>
  <unicode hex="006D"/>
  <outline>
    <contour>
      <point x="194.2" y="370.2" type="curve" smooth="yes"/>
      <point x="194.2" y="251.0"/>
      <point x="141.4" y="272.2"/>
      <point x="167.8" y="361.2" type="curve" smooth="yes"/>
      <point x="195.4" y="456.8"/>
      <point x="248.6" y="513.2"/>
      <point x="321.4" y="513.2" type="curve" smooth="yes"/>
      <point x="392.0" y="513.2"/>
      <point x="425.2" y="440.2"/>
      <point x="442.2" y="324.4" type="curve" smooth="yes"/>
      <point x="451.8" y="254.8"/>
      <point x="464.0" y="215.39999999999998"/>
      <point x="477.8" y="190.8" type="curve" smooth="yes"/>
      <point x="510.6" y="131.2"/>
      <point x="421.0" y="113.0"/>
      <point x="440.6" y="197.2" type="curve" smooth="yes"/>
      <point x="483.8" y="392.6"/>
      <point x="574.47142857144" y="513.2"/>
      <point x="664.0" y="513.2" type="curve" smooth="yes"/>
      <point x="769.2" y="513.2"/>
      <point x="812.8" y="431.2"/>
      <point x="827.8" y="263.6" type="curve" smooth="yes"/>
      <point x="843.6" y="87.6"/>
      <point x="880.6" y="88.4"/>
      <point x="880.6" y="38.4" type="curve" smooth="yes"/>
      <point x="880.6" y="13.8"/>
      <point x="861.0" y="-9.0"/>
      <point x="830.0" y="-9.0" type="curve" smooth="yes"/>
      <point x="761.0" y="-9.0"/>
      <point x="720.8" y="39.400000000000006"/>
      <point x="703.8" y="180.4" type="curve" smooth="yes"/>
      <point x="685.8" y="332.0"/>
      <point x="676.4" y="356.6"/>
      <point x="650.2" y="395.6" type="curve" smooth="yes"/>
      <point x="626.4" y="433.4"/>
      <point x="718.0" y="429.0"/>
      <point x="673.0" y="388.2" type="curve" smooth="yes"/>
      <point x="596.2" y="318.4"/>
      <point x="562.4" y="196.6"/>
      <point x="521.2" y="42.4" type="curve" smooth="yes"/>
      <point x="513.0" y="8.6"/>
      <point x="488.4" y="-9.0"/>
      <point x="457.8" y="-9.0" type="curve" smooth="yes"/>
      <point x="387.4" y="-9.0"/>
      <point x="357.4" y="63.2"/>
      <point x="343.0" y="175.8" type="curve" smooth="yes"/>
      <point x="327.0" y="298.6"/>
      <point x="315.0" y="357.8"/>
      <point x="278.0" y="397.0" type="curve" smooth="yes"/>
      <point x="256.8" y="420.8"/>
      <point x="329.8" y="411.4"/>
      <point x="306.2" y="380.8" type="curve" smooth="yes"/>
      <point x="242.6" y="299.0"/>
      <point x="220.4" y="163.2"/>
      <point x="208.0" y="38.8" type="curve" smooth="yes"/>
      <point x="204.4" y="5.0"/>
      <point x="185.50769230768" y="-9.0"/>
      <point x="152.0" y="-9.0" type="curve" smooth="yes"/>
      <point x="84.50769230768" y="-9.0"/>
      <point x="64.8" y="72.4"/>
      <point x="64.8" y="154.8" type="curve" smooth="yes"/>
      <point x="64.8" y="220.58412698412"/>
      <point x="74.4" y="292.4"/>
      <point x="74.4" y="357.2" type="curve" smooth="yes"/>
      <point x="74.4" y="389.25853658536"/>
      <point x="67.4" y="416.86341463416"/>
      <point x="67.4" y="444.2" type="curve" smooth="yes"/>
      <point x="67.4" y="463.2"/>
      <point x="81.8" y="480.2"/>
      <point x="107.4" y="480.2" type="curve" smooth="yes"/>
      <point x="169.6048780488" y="480.2"/>
      <point x="194.2" y="422.86400000000003"/>
    </contour>
  </outline>
</glyph>
<glyph name="n" format="2">
  <advance width="669.0"/>
  <unicode hex="006E"/>
  <outline>
    <contour>
      <point x="556.6" y="-10.0" type="curve" smooth="yes"/>
      <point x="590.0" y="-10.0"/>
      <point x="619.8" y="20.6"/>
      <point x="619.8" y="59.0" type="curve" smooth="yes"/>
      <point x="619.8" y="80.4"/>
      <point x="614.0" y="93.4"/>
      <point x="599.2" y="105.6" type="curve" smooth="yes"/>
      <point x="556.6" y="141.2"/>
      <point x="554.0" y="216.44427480916"/>
      <point x="554.0" y="358.8" type="curve" smooth="yes"/>
      <point x="554.0" y="446.4"/>
      <point x="502.2" y="512.8"/>
      <point x="423.0" y="512.8" type="curve" smooth="yes"/>
      <point x="325.4" y="512.8"/>
      <point x="219.6" y="403.8"/>
      <point x="152.6" y="180.39999999999998" type="curve"/>
      <point x="187.4" y="144.0" type="line"/>
      <point x="183.40244098276" y="298.95630640852"/>
      <point x="214.8" y="340.2"/>
      <point x="214.8" y="418.8" type="curve" smooth="yes"/>
      <point x="214.8" y="477.4"/>
      <point x="168.45714285716" y="504.6"/>
      <point x="137.0" y="504.6" type="curve" smooth="yes"/>
      <point x="107.85714285716" y="504.6"/>
      <point x="92.0" y="486.9"/>
      <point x="92.0" y="462.6" type="curve" smooth="yes"/>
      <point x="92.0" y="338.80789473684"/>
      <point x="63.0" y="286.74871794872"/>
      <point x="63.0" y="151.0" type="curve" smooth="yes"/>
      <point x="63.0" y="58.0"/>
      <point x="90.52" y="-9.0"/>
      <point x="145.0" y="-9.0" type="curve" smooth="yes"/>
      <point x="182.71111111112" y="-9.0"/>
      <point x="203.2618679816" y="8.27126730392"/>
      <point x="216.2" y="57.2" type="curve" smooth="yes"/>
      <point x="266.8" y="241.4"/>
      <point x="362.4" y="385.8"/>
      <point x="412.2" y="385.8" type="curve" smooth="yes"/>
      <point x="432.2" y="385.8"/>
      <point x="444.4" y="374.8"/>
      <point x="467.0" y="348.6" type="curve"/>
      <point x="469.2" y="401.2"/>
      <point x="441.4" y="410.4"/>
      <point x="392.0" y="410.6" type="curve"/>
      <point x="427.8" y="389.2"/>
      <point x="433.2" y="370.6"/>
      <point x="433.2" y="285.4" type="curve" smooth="yes"/>
      <point x="433.2" y="82.6"/>
      <point x="475.8" y="-10.0"/>
    </contour>
  </outline>
</glyph>
<glyph name="o" format="2">
  <advance width="636.0"/>
  <unicode hex="006F"/>
  <outline>
    <contour>
      <point x="333.0" y="-12.0" type="curve" smooth="yes"/>
      <point x="478.4" y="-12.0"/>
      <point x="589.0" y="104.4"/>
      <point x="589.0" y="258.0" type="curve" smooth="yes"/>
      <point x="589.0" y="411.2"/>
      <point x="493.8" y="507.2"/>
      <point x="333.0" y="507.2" type="curve" smooth="yes"/>
      <point x="247.09782608696" y="507.2"/>
      <point x="157.4" y="423.6"/>
      <point x="157.4" y="352.2" type="curve" smooth="yes"/>
      <point x="157.4" y="308.2"/>
      <point x="175.6" y="295.0"/>
      <point x="197.8" y="295.0" type="curve" smooth="yes"/>
      <point x="227.4" y="295.0"/>
      <point x="236.8" y="310.6"/>
      <point x="266.4" y="340.2" type="curve" smooth="yes"/>
      <point x="291.49472010344" y="365.29472010344"/>
      <point x="309.83636363636003" y="379.8"/>
      <point x="343.4" y="379.8" type="curve" smooth="yes"/>
      <point x="413.8" y="379.8"/>
      <point x="459.8" y="332.0"/>
      <point x="459.8" y="255.6" type="curve" smooth="yes"/>
      <point x="459.8" y="170.4"/>
      <point x="407.0" y="114.0"/>
      <point x="328.8" y="114.0" type="curve" smooth="yes"/>
      <point x="235.6" y="114.0"/>
      <point x="176.4" y="170.4"/>
      <point x="176.4" y="256.6" type="curve" smooth="yes"/>
      <point x="176.4" y="310.85917159764"/>
      <point x="220.786213818" y="353.60840031608"/>
      <point x="263.8" y="373.6" type="curve" smooth="yes"/>
      <point x="313.8" y="392.2"/>
      <point x="327.2" y="422.4"/>
      <point x="327.2" y="462.8" type="curve" smooth="yes"/>
      <point x="327.2" y="496.37391304348"/>
      <point x="300.4" y="509.0"/>
      <point x="271.0" y="509.0" type="curve" smooth="yes"/>
      <point x="176.6" y="509.0"/>
      <point x="47.0" y="392.6"/>
      <point x="47.0" y="258.0" type="curve" smooth="yes"/>
      <point x="47.0" y="100.8"/>
      <point x="166.6" y="-12.0"/>
    </contour>
  </outline>
</glyph>
<glyph name="p" format="2">
  <advance width="586.0"/>
  <unicode hex="0070"/>
  <outline>
    <contour>
      <point x="179.0" y="368.4" type="curve" smooth="yes"/>
      <point x="179.0" y="213.4"/>
      <point x="229.0" y="95.6"/>
      <point x="229.0" y="-46.0" type="curve" smooth="yes"/>
      <point x="229.0" y="-160.8"/>
      <point x="212.8" y="-261.0"/>
      <point x="139.4" y="-261.0" type="curve" smooth="yes"/>
      <point x="105.6" y="-261.0"/>
      <point x="71.4" y="-237.2"/>
      <point x="71.4" y="-183.8" type="curve" smooth="yes"/>
      <point x="71.4" y="-132.8"/>
      <point x="92.6" y="-110.8"/>
      <point x="92.6" y="-18.8" type="curve" smooth="yes"/>
      <point x="92.6" y="129.0"/>
      <point x="46.0" y="259.2"/>
      <point x="39.400000000000006" y="406.0" type="curve" smooth="yes"/>
      <point x="38.2" y="437.4"/>
      <point x="56.4" y="456.0"/>
      <point x="85.6" y="456.0" type="curve" smooth="yes"/>
      <point x="134.08717948716" y="456.0"/>
      <point x="179.0" y="415.8"/>
    </contour>
    <contour>
      <point x="215.4" y="514.4" type="curve" smooth="yes"/>
      <point x="398.0" y="514.4"/>
      <point x="547.2" y="397.0"/>
      <point x="547.2" y="196.4" type="curve" smooth="yes"/>
      <point x="547.2" y="86.6"/>
      <point x="459.6" y="-10.0"/>
      <point x="322.8" y="-10.0" type="curve" smooth="yes"/>
      <point x="213.0" y="-10.0"/>
      <point x="130.0" y="53.0"/>
      <point x="130.0" y="123.4" type="curve" smooth="yes"/>
      <point x="130.0" y="144.0"/>
      <point x="146.0" y="164.0"/>
      <point x="166.8" y="164.0" type="curve" smooth="yes"/>
      <point x="203.4" y="164.0"/>
      <point x="223.2" y="117.8"/>
      <point x="303.4" y="117.8" type="curve" smooth="yes"/>
      <point x="367.2" y="117.8"/>
      <point x="410.8" y="144.4"/>
      <point x="410.8" y="215.0" type="curve" smooth="yes"/>
      <point x="410.8" y="320.0"/>
      <point x="309.6" y="383.4"/>
      <point x="214.0" y="383.4" type="curve" smooth="yes"/>
      <point x="192.2" y="383.4"/>
      <point x="172.6" y="376.0"/>
      <point x="148.4" y="376.0" type="curve" smooth="yes"/>
      <point x="113.8" y="376.0"/>
      <point x="80.8" y="405.6"/>
      <point x="80.8" y="441.0" type="curve" smooth="yes"/>
      <point x="80.8" y="494.6"/>
      <point x="123.8" y="514.4"/>
    </contour>
  </outline>
</glyph>
<glyph name="q" format="2">
  <advance width="594.0"/>
  <unicode hex="0071"/>
  <outline>
    <contour>
      <point x="425.4" y="321.8" type="curve" smooth="yes"/>
      <point x="457.2" y="321.8"/>
      <point x="482.8" y="347.0375"/>
      <point x="482.8" y="375.4" type="curve" smooth="yes"/>
      <point x="482.8" y="443.025"/>
      <point x="420.6" y="513.0"/>
      <point x="327.0" y="513.0" type="curve" smooth="yes"/>
      <point x="179.0" y="513.0"/>
      <point x="27.0" y="346.25667752444"/>
      <point x="27.0" y="192.0" type="curve" smooth="yes"/>
      <point x="27.0" y="70.60808080808"/>
      <point x="92.0" y="-10.0"/>
      <point x="223.0" y="-10.0" type="curve" smooth="yes"/>
      <point x="308.6" y="-10.0"/>
      <point x="378.6" y="27.8"/>
      <point x="435.0" y="96.2" type="curve" smooth="yes"/>
      <point x="491.6" y="156.2"/>
      <point x="410.29619526012" y="162.73015069424002"/>
      <point x="408.4" y="112.6" type="curve" smooth="yes"/>
      <point x="403.44936901868" y="-10.59256231368"/>
      <point x="409.8" y="-63.8"/>
      <point x="413.4" y="-186.4" type="curve" smooth="yes"/>
      <point x="415.2" y="-220.4"/>
      <point x="443.0" y="-260.0"/>
      <point x="483.4" y="-260.0" type="curve" smooth="yes"/>
      <point x="523.2" y="-260.0"/>
      <point x="563.51538007176" y="-231.6490424372"/>
      <point x="604.0" y="-196.0" type="curve" smooth="yes"/>
      <point x="616.0" y="-185.0"/>
      <point x="624.0" y="-169.0"/>
      <point x="624.0" y="-151.0" type="curve" smooth="yes"/>
      <point x="624.0" y="-103.53684210528002"/>
      <point x="607.2" y="-64.2"/>
      <point x="585.8" y="-64.2" type="curve" smooth="yes"/>
      <point x="563.8" y="-64.2"/>
      <point x="547.71350902988" y="-85.33513769720001"/>
      <point x="521.0" y="-100.60000000000001" type="curve" smooth="yes"/>
      <point x="495.36396482232" y="-115.14817969952001"/>
      <point x="541.8" y="-149.4"/>
      <point x="540.0" y="-108.60000000000001" type="curve" smooth="yes"/>
      <point x="536.4" y="19.29727047148"/>
      <point x="533.01190477632" y="77.49702320028"/>
      <point x="532.0" y="179.8" type="curve"/>
      <point x="540.0777649598" y="205.08030835643999"/>
      <point x="558.0" y="247.50638297871998"/>
      <point x="558.0" y="300.0" type="curve" smooth="yes"/>
      <point x="558.0" y="338.57777777776"/>
      <point x="529.11764705884" y="368.0"/>
      <point x="482.0" y="368.0" type="curve" smooth="yes"/>
      <point x="460.0" y="368.0"/>
      <point x="448.0" y="356.0"/>
      <point x="442.8" y="336.2" type="curve" smooth="yes"/>
      <point x="407.0" y="203.6"/>
      <point x="324.0" y="118.0"/>
      <point x="223.0" y="118.0" type="curve" smooth="yes"/>
      <point x="182.88571428571998" y="118.0"/>
      <point x="160.0" y="140.8258064516"/>
      <point x="160.0" y="183.0" type="curve" smooth="yes"/>
      <point x="160.0" y="270.84000000000003"/>
      <point x="256.40612244896" y="384.0"/>
      <point x="327.0" y="384.0" type="curve" smooth="yes"/>
      <point x="357.2" y="384.0"/>
      <point x="370.6" y="373.6"/>
      <point x="387.2" y="347.8" type="curve" smooth="yes"/>
      <point x="398.00853090156" y="329.336137285"/>
      <point x="410.8" y="321.8"/>
    </contour>
  </outline>
</glyph>
<glyph name="r" format="2">
  <advance width="504.0"/>
  <unicode hex="0072"/>
  <outline>
    <contour>
      <point x="171.0" y="-12.0" type="curve" smooth="yes"/>
      <point x="209.96428571428" y="-12.0"/>
      <point x="219.2" y="8.8"/>
      <point x="231.4" y="83.2" type="curve" smooth="yes"/>
      <point x="252.2" y="227.2"/>
      <point x="288.51865096144" y="313.37099181572"/>
      <point x="439.2" y="372.0" type="curve" smooth="yes"/>
      <point x="475.26982871144" y="386.364440049"/>
      <point x="483.6" y="409.82439024392"/>
      <point x="483.6" y="433.6" type="curve" smooth="yes"/>
      <point x="483.6" y="479.83076923076"/>
      <point x="470.2" y="511.4"/>
      <point x="429.8" y="511.4" type="curve" smooth="yes"/>
      <point x="330.0" y="511.4"/>
      <point x="205.4" y="404.8"/>
      <point x="162.4" y="210.2" type="curve"/>
      <point x="214.6" y="215.4" type="line"/>
      <point x="203.2" y="440.6"/>
      <point x="152.6" y="502.2"/>
      <point x="78.0" y="502.2" type="curve" smooth="yes"/>
      <point x="52.58571428572" y="502.2"/>
      <point x="32.2" y="487.6"/>
      <point x="32.2" y="465.6" type="curve" smooth="yes"/>
      <point x="32.2" y="445.0"/>
      <point x="37.06173915068" y="432.30720491976"/>
      <point x="52.8" y="397.0" type="curve" smooth="yes"/>
      <point x="82.42292276648" y="329.46315153912"/>
      <point x="94.6" y="222.4"/>
      <point x="94.6" y="87.8" type="curve" smooth="yes"/>
      <point x="94.6" y="33.0"/>
      <point x="131.98285714284" y="-12.0"/>
    </contour>
  </outline>
</glyph>
<glyph name="s" format="2">
  <advance width="513.0"/>
  <unicode hex="0073"/>
  <outline>
    <contour>
      <point x="189.0" y="-10.0" type="curve" smooth="yes"/>
      <point x="336.0" y="-10.0"/>
      <point x="476.0" y="42.2"/>
      <point x="476.0" y="160.0" type="curve" smooth="yes"/>
      <point x="476.0" y="294.4"/>
      <point x="206.6" y="284.4"/>
      <point x="179.8" y="339.4" type="curve"/>
      <point x="207.6" y="361.8"/>
      <point x="253.2" y="380.8"/>
      <point x="326.4" y="380.8" type="curve"/>
      <point x="353.8" y="380.8"/>
      <point x="372.4" y="376.4"/>
      <point x="389.2" y="376.4" type="curve" smooth="yes"/>
      <point x="409.8" y="376.4"/>
      <point x="424.0" y="397.2"/>
      <point x="424.0" y="427.2" type="curve" smooth="yes"/>
      <point x="424.0" y="467.4"/>
      <point x="388.4" y="512.8"/>
      <point x="331.0" y="513.8" type="curve" smooth="yes"/>
      <point x="202.8" y="516.8"/>
      <point x="54.0" y="456.8"/>
      <point x="54.0" y="344.0" type="curve" smooth="yes"/>
      <point x="54.0" y="206.4"/>
      <point x="303.4" y="210.6"/>
      <point x="348.0" y="161.8" type="curve"/>
      <point x="326.29935844824" y="132.22164576916"/>
      <point x="267.0" y="118.0"/>
      <point x="194.6" y="118.0" type="curve" smooth="yes"/>
      <point x="128.4" y="118.0"/>
      <point x="107.4" y="145.0"/>
      <point x="73.8" y="145.0" type="curve" smooth="yes"/>
      <point x="47.6" y="145.0"/>
      <point x="34.0" y="126.0"/>
      <point x="34.0" y="104.0" type="curve" smooth="yes"/>
      <point x="34.0" y="50.2"/>
      <point x="89.2" y="-10.0"/>
    </contour>
  </outline>
</glyph>
<glyph name="t" format="2">
  <advance width="479.0"/>
  <unicode hex="0074"/>
  <outline>
    <contour>
      <point x="193.6" y="323.2" type="curve" smooth="yes"/>
      <point x="193.6" y="424.0"/>
      <point x="209.6" y="474.6"/>
      <point x="209.6" y="558.0" type="curve" smooth="yes"/>
      <point x="209.6" y="665.6"/>
      <point x="167.56428571428" y="712.0"/>
      <point x="104.8" y="712.0" type="curve" smooth="yes"/>
      <point x="68.75384615384" y="712.0"/>
      <point x="60.6" y="693.94"/>
      <point x="60.6" y="671.2" type="curve" smooth="yes"/>
      <point x="60.6" y="638.35789473684"/>
      <point x="77.2" y="615.6"/>
      <point x="77.2" y="553.0" type="curve" smooth="yes"/>
      <point x="77.2" y="471.0"/>
      <point x="63.0" y="413.6796680498"/>
      <point x="63.0" y="318.0" type="curve" smooth="yes"/>
      <point x="63.0" y="119.4"/>
      <point x="127.4" y="-13.0"/>
      <point x="310.6" y="-13.0" type="curve" smooth="yes"/>
      <point x="394.4" y="-13.0"/>
      <point x="439.4" y="34.2"/>
      <point x="439.4" y="97.0" type="curve" smooth="yes"/>
      <point x="439.4" y="127.6"/>
      <point x="429.75555555556" y="142.6"/>
      <point x="408.0" y="142.6" type="curve" smooth="yes"/>
      <point x="382.24507042252003" y="142.6"/>
      <point x="372.51267605632" y="121.39999999999999"/>
      <point x="329.8" y="121.39999999999999" type="curve" smooth="yes"/>
      <point x="239.17037037036" y="121.39999999999999"/>
      <point x="193.6" y="173.8"/>
    </contour>
    <contour>
      <point x="182.4" y="351.0" type="curve" smooth="yes"/>
      <point x="249.9683790508" y="378.55188752188"/>
      <point x="305.1495781922" y="390.829131516"/>
      <point x="400.2" y="397.2" type="curve" smooth="yes"/>
      <point x="425.79590094404" y="399.19967207551997"/>
      <point x="438.8" y="415.33333333332"/>
      <point x="438.8" y="437.2" type="curve" smooth="yes"/>
      <point x="438.8" y="477.83636363636003"/>
      <point x="397.4930232558" y="513.0"/>
      <point x="345.0" y="513.0" type="curve" smooth="yes"/>
      <point x="291.83867403316003" y="513.0"/>
      <point x="223.51008842796" y="499.8037364548"/>
      <point x="171.0" y="480.8" type="curve" smooth="yes"/>
      <point x="113.0" y="459.4"/>
      <point x="106.2" y="431.4"/>
      <point x="106.2" y="396.6" type="curve" smooth="yes"/>
      <point x="106.2" y="357.2"/>
      <point x="134.2" y="330.8"/>
    </contour>
    <component base="t.001"/>
  </outline>
</glyph>
<glyph name="u" format="2">
  <advance width="579.0"/>
  <unicode hex="0075"/>
  <outline>
    <contour>
      <point x="303.0" y="-10.0" type="curve" smooth="yes"/>
      <point x="427.0" y="-10.0"/>
      <point x="525.0" y="116.0"/>
      <point x="525.0" y="376.0" type="curve" smooth="yes"/>
      <point x="525.0" y="480.0"/>
      <point x="495.4444444444" y="510.0"/>
      <point x="448.0" y="510.0" type="curve" smooth="yes"/>
      <point x="412.0" y="510.0"/>
      <point x="402.0" y="490.0"/>
      <point x="402.0" y="457.0" type="curve" smooth="yes"/>
      <point x="402.0" y="430.0"/>
      <point x="405.0" y="403.0"/>
      <point x="405.0" y="375.0" type="curve" smooth="yes"/>
      <point x="405.0" y="215.374015748"/>
      <point x="363.6290322581" y="110.0"/>
      <point x="291.0" y="110.0" type="curve" smooth="yes"/>
      <point x="235.9523809524" y="110.0"/>
      <point x="155.0" y="224.2857142857"/>
      <point x="155.0" y="310.0" type="curve" smooth="yes"/>
      <point x="155.0" y="380.0"/>
      <point x="178.0" y="403.0"/>
      <point x="178.0" y="437.0" type="curve" smooth="yes"/>
      <point x="178.0" y="477.0"/>
      <point x="146.4096385542" y="510.0"/>
      <point x="109.0" y="510.0" type="curve" smooth="yes"/>
      <point x="89.0" y="510.0"/>
      <point x="73.0" y="497.0"/>
      <point x="67.0" y="480.0" type="curve" smooth="yes"/>
      <point x="45.0" y="424.0"/>
      <point x="35.0" y="371.0"/>
      <point x="35.0" y="310.0" type="curve" smooth="yes"/>
      <point x="35.0" y="176.0"/>
      <point x="140.0" y="-10.0"/>
    </contour>
  </outline>
</glyph>
<glyph name="v" format="2">
  <advance width="593.0"/>
  <unicode hex="0076"/>
  <outline>
    <contour>
      <point x="207.0" y="51.0" type="curve" smooth="yes"/>
      <point x="234.8973644688" y="8.253953296799999"/>
      <point x="259.95348837208" y="-10.0"/>
      <point x="297.4" y="-10.0" type="curve" smooth="yes"/>
      <point x="323.42857142856" y="-10.0"/>
      <point x="336.24625366355997" y="1.50932684116"/>
      <point x="349.6" y="33.4" type="curve" smooth="yes"/>
      <point x="417.26691620176" y="191.96820367276"/>
      <point x="462.2" y="268.6"/>
      <point x="549.8" y="393.8" type="curve" smooth="yes"/>
      <point x="556.89467506952" y="404.01834383692"/>
      <point x="561.8" y="417.70810810812"/>
      <point x="561.8" y="432.0" type="curve" smooth="yes"/>
      <point x="561.8" y="470.90769230768"/>
      <point x="527.05714285716" y="513.2"/>
      <point x="498.0" y="513.2" type="curve" smooth="yes"/>
      <point x="474.94146341464" y="513.2"/>
      <point x="463.70424462415997" y="507.79801132936"/>
      <point x="447.2" y="487.2" type="curve" smooth="yes"/>
      <point x="368.41729556708003" y="387.86471216632003"/>
      <point x="321.2" y="283.2"/>
      <point x="261.8" y="145.6" type="curve"/>
      <point x="303.2" y="140.8" type="line"/>
      <point x="267.8" y="211.6"/>
      <point x="238.56457114148" y="304.40279070124"/>
      <point x="210.8" y="381.6" type="curve" smooth="yes"/>
      <point x="185.767642179" y="449.35295418932003"/>
      <point x="147.4" y="511.2"/>
      <point x="73.6" y="511.2" type="curve" smooth="yes"/>
      <point x="45.0" y="511.2"/>
      <point x="30.200000000000003" y="494.0"/>
      <point x="30.200000000000003" y="473.2" type="curve" smooth="yes"/>
      <point x="30.200000000000003" y="421.8"/>
      <point x="65.0" y="401.2"/>
      <point x="115.8" y="265.6" type="curve" smooth="yes"/>
      <point x="142.6" y="194.6"/>
      <point x="178.25721459308" y="95.06294287284"/>
    </contour>
  </outline>
</glyph>
<glyph name="w" format="2">
  <advance width="893.0"/>
  <unicode hex="0077"/>
  <outline>
    <contour>
      <point x="155.6" y="454.2" type="curve" smooth="yes"/>
      <point x="205.6" y="353.8"/>
      <point x="205.0" y="199.8"/>
      <point x="263.6" y="119.0" type="curve" smooth="yes"/>
      <point x="283.8" y="91.8"/>
      <point x="199.8" y="91.8"/>
      <point x="217.2" y="117.2" type="curve" smooth="yes"/>
      <point x="258.0" y="181.2"/>
      <point x="272.0" y="270.8"/>
      <point x="310.6" y="371.6" type="curve" smooth="yes"/>
      <point x="345.6" y="464.0"/>
      <point x="375.2" y="512.4"/>
      <point x="430.0" y="512.4" type="curve" smooth="yes"/>
      <point x="494.4" y="512.4"/>
      <point x="530.6" y="460.2"/>
      <point x="570.0" y="359.4" type="curve" smooth="yes"/>
      <point x="609.4" y="256.2"/>
      <point x="619.0" y="166.6"/>
      <point x="675.0" y="127.2" type="curve" smooth="yes"/>
      <point x="724.2" y="94.6"/>
      <point x="611.2" y="78.0"/>
      <point x="636.6" y="118.4" type="curve" smooth="yes"/>
      <point x="682.8" y="190.2"/>
      <point x="684.0" y="336.6"/>
      <point x="715.6" y="424.0" type="curve" smooth="yes"/>
      <point x="732.0" y="469.0"/>
      <point x="765.44536082476" y="514.4"/>
      <point x="814.0" y="514.4" type="curve" smooth="yes"/>
      <point x="848.26440677968" y="514.4"/>
      <point x="879.6" y="481.8"/>
      <point x="879.6" y="448.0" type="curve" smooth="yes"/>
      <point x="879.6" y="427.0"/>
      <point x="868.6" y="407.0"/>
      <point x="853.2" y="390.6" type="curve" smooth="yes"/>
      <point x="810.20571454204" y="342.3819271428"/>
      <point x="802.7927242282" y="242.90739314928"/>
      <point x="784.0" y="158.6" type="curve" smooth="yes"/>
      <point x="753.2" y="18.2"/>
      <point x="714.0" y="-13.0"/>
      <point x="670.0" y="-13.0" type="curve" smooth="yes"/>
      <point x="626.55918367348" y="-13.0"/>
      <point x="595.6" y="8.2"/>
      <point x="554.6" y="75.6" type="curve" smooth="yes"/>
      <point x="491.6" y="179.8"/>
      <point x="472.4" y="329.0"/>
      <point x="427.4" y="380.0" type="curve" smooth="yes"/>
      <point x="400.8" y="408.2"/>
      <point x="471.6" y="411.2"/>
      <point x="448.2" y="381.8" type="curve" smooth="yes"/>
      <point x="399.6" y="317.6"/>
      <point x="385.4" y="187.8"/>
      <point x="333.0" y="66.4" type="curve" smooth="yes"/>
      <point x="308.8" y="9.6"/>
      <point x="280.2" y="-15.0"/>
      <point x="241.0" y="-15.0" type="curve" smooth="yes"/>
      <point x="181.2" y="-15.0"/>
      <point x="141.6" y="31.4"/>
      <point x="110.80000000000001" y="148.0" type="curve" smooth="yes"/>
      <point x="82.0" y="258.0"/>
      <point x="65.0" y="353.4"/>
      <point x="28.0" y="417.0" type="curve" smooth="yes"/>
      <point x="-7.600000000000001" y="477.6"/>
      <point x="24.0" y="515.4"/>
      <point x="73.6" y="515.4" type="curve" smooth="yes"/>
      <point x="107.2" y="515.4"/>
      <point x="130.0" y="506.2"/>
    </contour>
  </outline>
</glyph>
<glyph name="x" format="2">
  <advance width="553.0"/>
  <unicode hex="0078"/>
  <outline>
    <contour>
      <point x="484.2" y="389.4" type="curve" smooth="yes"/>
      <point x="326.8" y="295.6"/>
      <point x="187.0" y="113.8"/>
      <point x="144.6" y="-98.6" type="curve" smooth="yes"/>
      <point x="136.2" y="-139.0"/>
      <point x="112.8" y="-168.2"/>
      <point x="86.2" y="-168.2" type="curve" smooth="yes"/>
      <point x="63.6" y="-168.2"/>
      <point x="33.4" y="-157.2"/>
      <point x="33.4" y="-87.6" type="curve" smooth="yes"/>
      <point x="33.4" y="82.19999999999999"/>
      <point x="188.4" y="341.6"/>
      <point x="364.8" y="468.4" type="curve" smooth="yes"/>
      <point x="411.2" y="503.0"/>
      <point x="442.2" y="513.8"/>
      <point x="461.6" y="513.8" type="curve" smooth="yes"/>
      <point x="500.4" y="513.8"/>
      <point x="518.2" y="488.6"/>
      <point x="518.2" y="443.4" type="curve" smooth="yes"/>
      <point x="518.2" y="421.4"/>
      <point x="510.2" y="405.4"/>
    </contour>
    <contour>
      <point x="476.8" y="132.4" type="curve" smooth="yes"/>
      <point x="517.8" y="74.4"/>
      <point x="523.8" y="47.4"/>
      <point x="523.8" y="28.4" type="curve" smooth="yes"/>
      <point x="523.8" y="1.7999999999999998"/>
      <point x="503.4" y="-13.6"/>
      <point x="465.8" y="-13.6" type="curve" smooth="yes"/>
      <point x="446.2" y="-13.6"/>
      <point x="417.0" y="-4.8"/>
      <point x="386.4" y="38.2" type="curve" smooth="yes"/>
      <point x="309.4" y="145.4"/>
      <point x="167.2" y="296.0"/>
      <point x="83.8" y="373.8" type="curve" smooth="yes"/>
      <point x="52.6" y="402.4"/>
      <point x="34.4" y="423.2"/>
      <point x="34.4" y="456.6" type="curve" smooth="yes"/>
      <point x="34.4" y="480.8"/>
      <point x="49.8" y="513.0"/>
      <point x="81.2" y="513.0" type="curve" smooth="yes"/>
      <point x="98.8" y="513.0"/>
      <point x="120.6" y="510.4"/>
      <point x="160.6" y="477.0" type="curve" smooth="yes"/>
      <point x="230.0" y="420.0"/>
      <point x="413.4" y="219.8"/>
    </contour>
  </outline>
</glyph>
<glyph name="y" format="2">
  <advance width="599.0"/>
  <unicode hex="0079"/>
  <outline>
    <contour>
      <point x="196.6" y="428.6" type="curve" smooth="yes"/>
      <point x="198.2005945436" y="479.40906678984"/>
      <point x="179.69523809524" y="512.6"/>
      <point x="114.8" y="512.6" type="curve" smooth="yes"/>
      <point x="78.275" y="512.6"/>
      <point x="50.0" y="485.24071856288003"/>
      <point x="50.0" y="343.0" type="curve" smooth="yes"/>
      <point x="50.0" y="144.23448275864"/>
      <point x="127.2" y="58.0"/>
      <point x="254.0" y="58.0" type="curve" smooth="yes"/>
      <point x="310.54347826088" y="58.0"/>
      <point x="390.4" y="86.8"/>
      <point x="443.2" y="231.4" type="curve" smooth="yes"/>
      <point x="454.8" y="262.0"/>
      <point x="399.39769098988" y="287.42847779144"/>
      <point x="400.6" y="264.2" type="curve" smooth="yes"/>
      <point x="401.8" y="140.2"/>
      <point x="412.0" y="85.8"/>
      <point x="412.0" y="-5.0" type="curve" smooth="yes"/>
      <point x="412.0" y="-78.3343283582"/>
      <point x="388.4" y="-128.0"/>
      <point x="306.2" y="-128.0" type="curve" smooth="yes"/>
      <point x="191.6" y="-128.0"/>
      <point x="174.8" y="-96.0"/>
      <point x="133.0" y="-96.0" type="curve" smooth="yes"/>
      <point x="104.8" y="-96.0"/>
      <point x="92.8" y="-110.60000000000001"/>
      <point x="92.8" y="-146.4" type="curve" smooth="yes"/>
      <point x="92.8" y="-213.6"/>
      <point x="158.8" y="-261.0"/>
      <point x="310.6" y="-261.0" type="curve" smooth="yes"/>
      <point x="423.8" y="-261.0"/>
      <point x="539.0" y="-185.8"/>
      <point x="539.0" y="-5.0" type="curve" smooth="yes"/>
      <point x="539.0" y="186.4"/>
      <point x="499.0" y="231.6"/>
      <point x="516.0" y="400.0" type="curve" smooth="yes"/>
      <point x="525.16013002312" y="488.7479235568"/>
      <point x="462.7" y="511.6"/>
      <point x="430.0" y="511.6" type="curve" smooth="yes"/>
      <point x="401.6" y="511.6"/>
      <point x="393.0" y="504.6"/>
      <point x="389.0" y="467.6" type="curve" smooth="yes"/>
      <point x="373.32706615144" y="309.63618836156"/>
      <point x="322.8" y="189.0"/>
      <point x="244.0" y="189.0" type="curve" smooth="yes"/>
      <point x="174.42022471912" y="189.0"/>
      <point x="191.8004107378" y="313.00660603272"/>
    </contour>
  </outline>
</glyph>
<glyph name="z" format="2">
  <advance width="609.0"/>
  <unicode hex="007A"/>
  <outline>
    <contour>
      <point x="89.6" y="486.0" type="curve" smooth="yes"/>
      <point x="159.77600735148" y="500.09250229736"/>
      <point x="240.90178571428" y="512.8"/>
      <point x="313.0" y="512.8" type="curve" smooth="yes"/>
      <point x="465.0" y="512.8"/>
      <point x="511.0" y="443.4"/>
      <point x="511.0" y="374.0" type="curve" smooth="yes"/>
      <point x="511.0" y="307.13434343434"/>
      <point x="432.55176336524" y="191.88217422874"/>
      <point x="164.2" y="116.0" type="curve"/>
      <point x="167.0" y="140.2" type="line"/>
      <point x="186.6" y="121.0"/>
      <point x="206.6" y="116.0"/>
      <point x="233.0" y="116.0" type="curve" smooth="yes"/>
      <point x="310.8" y="116.0"/>
      <point x="389.0" y="130.4"/>
      <point x="480.6" y="130.4" type="curve" smooth="yes"/>
      <point x="536.2" y="130.4"/>
      <point x="572.4" y="92.87555555556"/>
      <point x="572.4" y="48.0" type="curve" smooth="yes"/>
      <point x="572.4" y="20.0"/>
      <point x="555.4" y="0.0"/>
      <point x="519.6" y="0.0" type="curve" smooth="yes"/>
      <point x="436.4" y="0.0"/>
      <point x="309.6" y="-10.0"/>
      <point x="211.0" y="-10.0" type="curve" smooth="yes"/>
      <point x="82.4" y="-10.0"/>
      <point x="48.0" y="50.025"/>
      <point x="48.0" y="110.8" type="curve" smooth="yes"/>
      <point x="48.0" y="161.2"/>
      <point x="69.4" y="187.6"/>
      <point x="102.8" y="197.8" type="curve" smooth="yes"/>
      <point x="295.4612029424" y="259.56139733436"/>
      <point x="374.9572660785" y="325.31453215700003"/>
      <point x="387.8" y="399.8" type="curve"/>
      <point x="419.8" y="350.4" type="line"/>
      <point x="391.53477981104" y="375.80015407328"/>
      <point x="367.6" y="385.0"/>
      <point x="320.0" y="385.0" type="curve" smooth="yes"/>
      <point x="200.6" y="385.0"/>
      <point x="141.2" y="357.6"/>
      <point x="106.6" y="357.6" type="curve" smooth="yes"/>
      <point x="77.8" y="357.6"/>
      <point x="48.4" y="396.39428571428"/>
      <point x="48.4" y="436.8" type="curve" smooth="yes"/>
      <point x="48.4" y="463.4"/>
      <point x="57.4" y="479.4"/>
    </contour>
  </outline>
</glyph>
